<svg id="Layer_1" data-name="Layer 1" xmlns="http://www.w3.org/2000/svg" viewBox="0 0 156.68 148.14"><defs><style>.cls-1{fill:#f5e8cf;}.cls-2{fill:#570000;}.cls-3{opacity:0.6;}.cls-4{fill:#fff;}.cls-5{opacity:0.3;}.cls-6{fill:#e9a735;}.cls-7{fill:#9c6f48;}.cls-8{opacity:0.25;}.cls-9{fill:#ecc39b;}.cls-10{fill:#b19378;}.cls-11{fill:#692d39;}.cls-12{fill:#f48211;}.cls-13{fill:#f2b477;}.cls-14{fill:#e5e1c6;}</style></defs><path class="cls-1" d="M138.67,116.2c0,10.94-21.5,19.81-48,19.81s-48-8.87-48-19.81c0-4.38,3.46-8.43,9.3-11.71a41.89,41.89,0,0,1,4.37-2.12c8.71-3.69,20.88-6,34.35-6a111.6,111.6,0,0,1,13.42.78c15.57,1.87,27.87,6.9,32.55,13.29A9.65,9.65,0,0,1,138.67,116.2Z"/><path class="cls-2" d="M90.66,136.12c-12.84,0-24.92-2.06-34-5.81s-14.13-8.77-14.13-14.11c0-4.29,3.24-8.38,9.36-11.81a45.18,45.18,0,0,1,4.37-2.13c9.13-3.85,21.34-6,34.39-6a111.81,111.81,0,0,1,13.44.78C119.78,99,132,103.93,136.71,110.4a9.78,9.78,0,0,1,2.07,5.8c0,5.34-5,10.35-14.13,14.11S103.49,136.12,90.66,136.12Zm0-39.61c-13,0-25.22,2.12-34.31,6A42.73,42.73,0,0,0,52,104.59C46,108,42.75,112,42.75,116.2c0,10.86,21.49,19.69,47.91,19.69s47.9-8.83,47.9-19.69a9.52,9.52,0,0,0-2-5.66c-2.28-3.12-6.48-6-12.14-8.31a80.13,80.13,0,0,0-20.33-4.93A113.41,113.41,0,0,0,90.66,96.51Z"/><g class="cls-3"><path class="cls-4" d="M118,99.92a90.51,90.51,0,0,0-11.42-2.07,113.7,113.7,0,0,0-13.42-.79c-13.47,0-25.64,2.29-34.36,6a42.73,42.73,0,0,0-4.36,2.12c-5.85,3.28-9.3,7.33-9.3,11.72,0,6.75,8.19,12.71,20.69,16.28-13.89-3.47-23.17-9.76-23.17-17,0-4.38,3.46-8.43,9.3-11.71a41.89,41.89,0,0,1,4.37-2.12c8.71-3.69,20.88-6,34.35-6a111.6,111.6,0,0,1,13.42.78A90.74,90.74,0,0,1,118,99.92Z"/></g><path class="cls-2" d="M90.66,136.91c-12.94,0-25.11-2.08-34.28-5.86-9.42-3.89-14.61-9.16-14.61-14.85s5.19-11,14.61-14.84c9.17-3.78,21.34-5.86,34.28-5.86s25.1,2.08,34.27,5.86c9.42,3.89,14.61,9.16,14.61,14.84s-5.19,11-14.61,14.85C115.76,134.83,103.59,136.91,90.66,136.91Zm0-39.61C77.94,97.3,66,99.34,57,103c-8.58,3.54-13.51,8.34-13.51,13.17s4.93,9.62,13.51,13.16c9,3.7,20.92,5.74,33.64,5.74s24.66-2,33.63-5.74c8.58-3.54,13.51-8.34,13.51-13.16s-4.92-9.63-13.51-13.17C115.32,99.34,103.37,97.3,90.66,97.3Z"/><path class="cls-2" d="M90.52,132.08c-9.36,0-18.17-1.44-24.81-4.06-6.84-2.69-10.6-6.36-10.6-10.32s3.76-7.63,10.6-10.33c6.64-2.62,15.45-4.06,24.81-4.06s18.17,1.44,24.81,4.06c6.83,2.7,10.6,6.36,10.6,10.33s-3.77,7.63-10.6,10.32C108.69,130.64,99.88,132.08,90.52,132.08Zm0-27.41c-9.21,0-17.85,1.41-24.35,4-6.2,2.44-9.76,5.75-9.76,9.06s3.56,6.61,9.76,9c6.5,2.56,15.14,4,24.35,4s17.85-1.41,24.34-4c6.2-2.44,9.76-5.74,9.76-9s-3.56-6.62-9.76-9.06c-6.49-2.56-15.14-4-24.34-4Z"/><g class="cls-5"><path class="cls-2" d="M136.63,110.47l-11.36,6.4a50,50,0,0,1-37.41,6.87c.74,1.79-2.4,4.49-8.25,5.34L85.09,123c-4.71-1.44-8.2-3.59-9.77-5.83l28.76-20C119.65,99.05,132,104.08,136.63,110.47Z"/></g><path class="cls-6" d="M146.78,93.05c-.28.42-.57.82-.86,1.21a29,29,0,0,1-3.63,4,25.66,25.66,0,0,1-2.45,2l-.16.12a22.67,22.67,0,0,1-15.62,3.95l-.52-.06.45-.69,4.67-7.2a12,12,0,0,0,6.43-1.87,15.1,15.1,0,0,0,2.27-1.7,17.58,17.58,0,0,0,1.37-1.36c5.66-6.25,7.36-16.49.43-18.75l-.25-.07a10.75,10.75,0,0,0-3.45-.37l.38-7.64a13,13,0,0,1,5.64.49,13.27,13.27,0,0,1,4.79,2.71C151.7,72.64,153.71,82.14,146.78,93.05Z"/><g class="cls-3"><path class="cls-4" d="M140.59,91.3c-.44.48-.89.93-1.37,1.36A16.11,16.11,0,0,1,137,94.35a11.89,11.89,0,0,1-6.21,1.87,12.44,12.44,0,0,0,4.35-1.69,15.1,15.1,0,0,0,2.27-1.7,17.58,17.58,0,0,0,1.37-1.36c5.66-6.25,7.36-16.48.43-18.75l-.25-.07-.43-.12a5.58,5.58,0,0,1,2.29-.06l.25.08C148,74.81,146.25,85.05,140.59,91.3Z"/></g><g class="cls-3"><path class="cls-4" d="M130.74,96.22l-.26,0,0,0A.88.88,0,0,0,130.74,96.22Z"/><path class="cls-2" d="M130.25,96.42l.21-.31h.28l0,.22-.27,0Z"/></g><path class="cls-6" d="M135.84,64c0,75.43-90.37,75.43-90.37,0,0-7.8,20.23-14.12,45.19-14.12S135.84,56.21,135.84,64Z"/><path class="cls-1" d="M135.17,72.71l-.42,2.86c0,24.59-88.46,24.59-88.46,0l-.37-3.79C50.2,93.54,128.78,93.86,135.17,72.71Z"/><g class="cls-5"><path class="cls-2" d="M53.66,66.75c12.34-11.31,64.72-9.59,74.25.57,4-5-4.38-8.33-4.38-8.33-22.24-6.1-44.19-6.11-65.82.53C57.71,59.52,49.84,63.35,53.66,66.75Z"/></g><g class="cls-3"><path class="cls-4" d="M47.74,65.08c0,27.1,11.67,44.47,26.62,52.1-16-7-28.89-24.71-28.89-53.17,0-7.8,20.23-14.12,45.19-14.12,16.48,0,30.91,2.76,38.8,6.88C121.24,53.24,107.94,51,92.93,51,68,51,47.74,57.28,47.74,65.08Z"/></g><path class="cls-2" d="M90.66,121.48A42.26,42.26,0,0,1,59,107.05C49.56,96.6,44.6,81.72,44.6,64c0-4.21,4.92-8.06,13.85-10.85C67.07,50.47,78.5,49,90.66,49s23.58,1.49,32.2,4.18C131.79,56,136.71,59.8,136.71,64c0,17.71-5,32.59-14.35,43A42.25,42.25,0,0,1,90.66,121.48Zm0-70.69c-26.51,0-44.32,6.84-44.32,13.22,0,38.25,23,55.67,44.32,55.67S135,102.26,135,64c0-6.38-17.8-13.22-44.31-13.22Z"/><path class="cls-7" d="M127.91,67.32h0a10.17,10.17,0,0,1-1.7,1.47c-5.74,4-19.5,6.78-35.55,6.78q-1.62,0-3.21,0c-14.66-.35-27-3-32.35-6.75h0a11.34,11.34,0,0,1-1.27-1l-.53-.58h0v0c3.15-3.57,12.47-6.44,24.55-7.64,4-.4,8.25-.62,12.7-.62C108.69,58.9,123.92,62.49,127.91,67.32Z"/><path class="cls-2" d="M127.91,68a.63.63,0,0,1-.52-.27c-4-4.72-19.45-8.15-36.87-8.15-17,0-32.29,3.3-36.62,7.87a.65.65,0,0,1-1.06.23v0l-.06,0a.71.71,0,0,1,0-.91c4.41-5,19.93-8.47,37.74-8.47,18.09,0,33.67,3.55,37.88,8.65a.68.68,0,0,1-.07,1A.61.61,0,0,1,127.91,68Z"/><g class="cls-8"><path class="cls-4" d="M69.16,80.76a64.82,64.82,0,0,1-9.8-2.46,2.73,2.73,0,0,0-3.46,3.32,66.43,66.43,0,0,0,4.56,13.44,6.11,6.11,0,0,0,4.64,3.33l6.2.83A2.51,2.51,0,0,0,74,96.14a43.83,43.83,0,0,1-.94-10.33A4.88,4.88,0,0,0,69.16,80.76Z"/></g><g class="cls-8"><path class="cls-4" d="M75.48,112.13c-4.31-1.77-7.53-5.5-9.26-7.91a1.22,1.22,0,0,1,1.07-2l5.42.61a3.42,3.42,0,0,1,2.91,2.59L77,110.72A1.15,1.15,0,0,1,75.48,112.13Z"/></g><path class="cls-2" d="M126.67,105.39a27.1,27.1,0,0,1-3.24-.2.9.9,0,0,1-.76-1,.88.88,0,0,1,1-.79c8.93,1.13,16.89-2.73,22.42-10.85,4.82-7.59,5.62-15.21,2.2-20.92A12.35,12.35,0,0,0,136,65.54a.88.88,0,0,1-1-.78.89.89,0,0,1,.75-1,14.06,14.06,0,0,1,14,6.91A17.37,17.37,0,0,1,152,80.82a27.24,27.24,0,0,1-4.52,12.72l0,0C142.25,101.28,134.94,105.39,126.67,105.39Z"/><path class="cls-2" d="M128.81,97.3h-.17a.9.9,0,0,1,0-1.8c5.46.07,9.78-4.23,12-8.28s2.8-8.61,1.26-11.26c-1.15-2-3.31-2.9-6.44-2.77a.91.91,0,0,1-.07-1.81c4.74-.19,7,1.87,8,3.64,1.9,3.25,1.42,8.27-1.23,13.09C139.74,92.57,134.94,97.3,128.81,97.3Z"/><path class="cls-9" d="M90.52,67.05a10.2,10.2,0,0,0-3.27-1.53,13.8,13.8,0,0,0-7,0,6.14,6.14,0,0,0-1.56.63,2.06,2.06,0,0,0-.56.46.44.44,0,0,0-.1.19.19.19,0,0,0,0,.13.8.8,0,0,0,.15.21l.3.25a5.27,5.27,0,0,0,.72.43,15.84,15.84,0,0,0,1.62.71c1.12.42,2.28.8,3.43,1.23a35.82,35.82,0,0,1,3.4,1.41,12.3,12.3,0,0,1,1.61.94,5.57,5.57,0,0,1,1.37,1.28,6.08,6.08,0,0,0-1.51-1,12.75,12.75,0,0,0-1.66-.71c-1.13-.42-2.29-.76-3.46-1.1s-2.33-.67-3.5-1.08a15.63,15.63,0,0,1-1.75-.71,5.73,5.73,0,0,1-.86-.51c-.14-.11-.28-.22-.41-.34a1.63,1.63,0,0,1-.39-.55,1.25,1.25,0,0,1-.08-.79,1.57,1.57,0,0,1,.3-.64,2.33,2.33,0,0,1,.42-.41,3.41,3.41,0,0,1,.44-.3,7,7,0,0,1,1.83-.7,12.77,12.77,0,0,1,7.38.49A8.87,8.87,0,0,1,90.52,67.05Z"/><path class="cls-9" d="M82.09,66.05a3.81,3.81,0,0,0-.65.49.37.37,0,0,0,0,.52,2.86,2.86,0,0,0,.55.55c.21.17.43.35.65.56a2.66,2.66,0,0,1-.82-.28,1.87,1.87,0,0,1-.72-.58.84.84,0,0,1-.14-.56.71.71,0,0,1,.31-.46A1.36,1.36,0,0,1,82.09,66.05Z"/><path class="cls-2" d="M122.54,58.44a16.21,16.21,0,0,1,2.91,1.09l.69.37c.23.14.46.27.68.42a8.88,8.88,0,0,1,1.28,1,6.84,6.84,0,0,1,1.07,1.35,4.1,4.1,0,0,1,.53,1.78,3.86,3.86,0,0,1-.33,1.85,6.07,6.07,0,0,1-1,1.48l.18-.47h0a.74.74,0,0,1-.18.47h0a10.26,10.26,0,0,1-1.94,1.67l-1,.67-1.09.57a30.3,30.3,0,0,1-4.47,1.81,63.59,63.59,0,0,1-9.26,2.21c-3.12.52-6.26.87-9.4,1.12-1.57.13-3.14.21-4.72.29l-2.36.07c-.79,0-1.57,0-2.36,0A124,124,0,0,1,72.91,75a81.21,81.21,0,0,1-9.31-1.88l-1.14-.32-1.14-.37c-.77-.23-1.51-.53-2.26-.82-.38-.14-.74-.32-1.11-.49l-.55-.25-.54-.28-.54-.29a5.64,5.64,0,0,1-.53-.31l-1-.68.35.12h0l-.35-.12a12.37,12.37,0,0,1-1-.8,4,4,0,0,1-.46-.46l-.44-.48.09.09a.8.8,0,0,1-.15-.17l0,0,0,0,0,0a5.35,5.35,0,0,1-.8-1.37,3.74,3.74,0,0,1,.16-3.2,5.13,5.13,0,0,1,.89-1.24A10.08,10.08,0,0,1,55.38,60a17.69,17.69,0,0,1,2.54-1.18.11.11,0,0,1,.14,0A.14.14,0,0,1,58,59a22.52,22.52,0,0,0-2.35,1.46,10.27,10.27,0,0,0-2,1.83,3.65,3.65,0,0,0-.91,2.29,3.36,3.36,0,0,0,1,2.19l0,0,0,.07,0,0a.69.69,0,0,0-.11-.13l.09.09.39.4a4.89,4.89,0,0,0,.41.37,10.16,10.16,0,0,0,.91.67l-.35-.11h0l.35.11A33,33,0,0,0,64,71.75a70.5,70.5,0,0,0,9.13,1.92,120,120,0,0,0,18.66,1.21c.78,0,1.56,0,2.34,0l2.34-.08c1.56-.09,3.11-.17,4.67-.31,3.11-.26,6.2-.64,9.27-1.18a64.52,64.52,0,0,0,9.05-2.19c.74-.23,1.46-.51,2.19-.78.36-.12.71-.3,1.06-.44s.71-.3,1-.48l1-.53,1-.6a8.44,8.44,0,0,0,1.7-1.41l-.18.48v0a.67.67,0,0,1,.18-.46,3.29,3.29,0,0,0,1-2.32,3,3,0,0,0-.32-1.22,5.65,5.65,0,0,0-.79-1.14c-.17-.17-.33-.35-.51-.52s-.36-.33-.54-.49c-.38-.32-.79-.61-1.2-.9-.82-.57-1.7-1.1-2.58-1.62a.1.1,0,0,1,0-.14h0A.08.08,0,0,1,122.54,58.44Z"/><path class="cls-10" d="M110.48,64.2a4.07,4.07,0,0,1,1.17.56,3.77,3.77,0,0,1,1,1,2.91,2.91,0,0,1,.51,1.42,3,3,0,0,1-.35,1.51,5.11,5.11,0,0,1-2,1.9,7.78,7.78,0,0,1-2.4.91c.66-.57,1.33-1.07,1.94-1.6a6.83,6.83,0,0,0,1.53-1.73,2.26,2.26,0,0,0,.27-1,2.41,2.41,0,0,0-.22-1A7.52,7.52,0,0,0,110.48,64.2Z"/><path class="cls-10" d="M70.43,64.2a7.1,7.1,0,0,0-1.47,2,2.59,2.59,0,0,0-.23,1,2.27,2.27,0,0,0,.28,1,6.81,6.81,0,0,0,1.52,1.73c.61.53,1.29,1,2,1.6a7.74,7.74,0,0,1-2.41-.91,5.09,5.09,0,0,1-2-1.9,3,3,0,0,1-.35-1.51,2.91,2.91,0,0,1,.51-1.42,3.89,3.89,0,0,1,1-1A4.4,4.4,0,0,1,70.43,64.2Z"/><ellipse class="cls-10" cx="121.13" cy="66.6" rx="1.65" ry="0.66"/><ellipse class="cls-10" cx="59.36" cy="67.05" rx="1.65" ry="0.66"/><ellipse class="cls-10" cx="119.72" cy="68.77" rx="1.07" ry="0.41"/><ellipse class="cls-10" cx="62.56" cy="65.27" rx="1.07" ry="0.41"/><ellipse class="cls-10" cx="117.8" cy="67.31" rx="0.58" ry="0.21"/><path class="cls-10" d="M64.36,67.76c0,.15-.33.26-.73.26s-.72-.11-.72-.26.33-.25.72-.25S64.36,67.62,64.36,67.76Z"/><g class="cls-5"><path class="cls-2" d="M81.68,118.87h0l2.4.44c22.71,2.42,46.89-14.38,49.28-50.39h0c-2.13,3.12-6.87,6.64-16.59,9.89a3.51,3.51,0,0,0-2.35,3.44C115,103.94,103.19,115.76,81.68,118.87Z"/></g><g class="cls-5"><path class="cls-11" d="M87.46,75.54c-14.67-.35-27-3-32.36-6.75h0a10.4,10.4,0,0,1-1.26-1c-.29-.3-.47-.5-.54-.58h0v0c3.15-3.57,12.47-6.44,24.55-7.64l.11.08C55.8,66.73,63.52,71.71,87.46,75.54Z"/></g><g class="cls-5"><path class="cls-2" d="M146.27,67.84c-3.14-.28-5.63,1.71-7.36,4.81a10.75,10.75,0,0,0-3.45-.37l.38-7.64a13.14,13.14,0,0,1,5.64.49A13.27,13.27,0,0,1,146.27,67.84Z"/></g><g class="cls-5"><path class="cls-2" d="M142.29,98.3a27.18,27.18,0,0,1-2.45,2l-.16.12a22.67,22.67,0,0,1-15.62,3.95l-.52-.06.45-.69,4.67-7.2a12,12,0,0,0,6.43-1.87,15.1,15.1,0,0,0,2.27-1.7C138.37,95.51,140,97.54,142.29,98.3Z"/></g><g class="cls-5"><path class="cls-2" d="M93.14,131.36l-1-.05c-54.91-3.17-40.16-26.82-40.16-26.82a41.89,41.89,0,0,1,4.37-2.12A39.39,39.39,0,0,0,66,112.29C54.25,121.73,65.87,127.7,93.14,131.36Z"/></g><path class="cls-7" d="M57,126.65c-3.58-1.66-4.38-7.89-1.78-13.9,2.47-5.73,7.12-9.19,10.65-8.08a4.18,4.18,0,0,1,.53.21l.22.09C80.53,110.87,71.76,133.53,57,126.65Z"/><g class="cls-5"><path class="cls-2" d="M57,126.65a5.38,5.38,0,0,1-2.68-3.14c11.53,4.21,18.93-9.63,13.66-17.87C79.91,112.41,71.25,133.29,57,126.65Z"/></g><g class="cls-3"><path class="cls-4" d="M72.23,109.9a11.77,11.77,0,0,0-4.75-3.4h0a.93.93,0,0,0-1.23.49l-8.63,19-1.08-.7L65.2,106.1l.66-1.43a0,0,0,0,1,0,0l.18.06.34.14.21.09h0A11.19,11.19,0,0,1,72.23,109.9Z"/></g><g class="cls-3"><path class="cls-4" d="M65.86,104.67l-.66,1.43c-3.2.24-6.83,3.46-8.91,8.27-1.81,4.21-2,8.52-.67,11.31-2.38-2.46-2.65-7.77-.42-12.93C57.67,107,62.32,103.56,65.86,104.67Z"/></g><path class="cls-2" d="M62.41,128.69a13.68,13.68,0,0,1-5.73-1.35h0c-2-.92-3.25-3-3.62-5.91a17.54,17.54,0,0,1,1.48-9A16.89,16.89,0,0,1,60,105.31c2.32-1.63,4.68-2,6.65-1.12a11.66,11.66,0,0,1,7.55,9.53,14.11,14.11,0,0,1-5.08,12.64A10.8,10.8,0,0,1,62.41,128.69ZM57.28,126c4,1.87,7.91,1.58,11-.81a12.55,12.55,0,0,0,4.51-11.24,10.21,10.21,0,0,0-6.66-8.34l0,0c-1.5-.69-3.37-.34-5.26,1a15.36,15.36,0,0,0-5,6.5c-2.43,5.63-1.8,11.42,1.42,12.92Z"/><path class="cls-2" d="M58.9,127.68a5.19,5.19,0,0,1-2.16-.47.62.62,0,0,1-.28-.81.57.57,0,0,1,.76-.3c1.54.71,3.46.36,5.39-1a15.44,15.44,0,0,0,5-6.56A16.18,16.18,0,0,0,69,110.28c-.31-2.41-1.33-4.13-2.87-4.85a.62.62,0,0,1-.26-.81.57.57,0,0,1,.74-.3c1.93.9,3.19,3,3.55,5.8A17.42,17.42,0,0,1,68.7,119a16.78,16.78,0,0,1-5.43,7.07A7.67,7.67,0,0,1,58.9,127.68Z"/><path class="cls-2" d="M56.12,126.74a.61.61,0,0,1-.58-.62.74.74,0,0,1,.05-.25l9.74-21.45a.57.57,0,0,1,.78-.29.62.62,0,0,1,.28.81h0l-9.74,21.45A.58.58,0,0,1,56.12,126.74Z"/><path class="cls-7" d="M64.56,119.9c-.45-3.6,3.72-7.15,9.34-7.92,5.34-.73,10,1.31,10.89,4.62a4.35,4.35,0,0,1,.1.52l0,.21C87.13,131.08,66.45,134.77,64.56,119.9Z"/><g class="cls-5"><path class="cls-2" d="M64.56,119.9a5.06,5.06,0,0,1,1-3.58c2.33,11.06,15.91,10.41,19.47,2.4C85.72,131.31,66.39,134.26,64.56,119.9Z"/></g><g class="cls-3"><path class="cls-4" d="M84,124.08a11.33,11.33,0,0,0,.25-5.34h0a.85.85,0,0,0-.94-.75l-17.89,2.08v-1.19l18-2.12,1.35-.16v0l0,.17a1.91,1.91,0,0,1,.06.33l0,.21h0A10.58,10.58,0,0,1,84,124.08Z"/></g><g class="cls-3"><path class="cls-4" d="M84.79,116.6l-1.35.16c-1.67-2.41-5.72-3.77-10.22-3.15-3.93.54-7.15,2.44-8.58,4.76.68-3,4.44-5.73,9.26-6.39C79.24,111.25,84,113.3,84.79,116.6Z"/></g><path class="cls-2" d="M74.6,130.22a11,11,0,0,1-4.15-.8c-3.68-1.5-6-4.85-6.6-9.42h0c-.52-4.08,3.85-7.92,9.95-8.76a14.14,14.14,0,0,1,7.82,1,6.31,6.31,0,0,1,4,4.77,10.79,10.79,0,0,1-3.46,10.49A11.73,11.73,0,0,1,74.6,130.22ZM65.28,119.8c.51,4,2.53,6.93,5.69,8.22a10.2,10.2,0,0,0,10.25-1.69,9.3,9.3,0,0,0,3-9.08v0A4.94,4.94,0,0,0,81,113.59a12.75,12.75,0,0,0-7-.86c-5.12.7-9.11,3.94-8.71,7.07Z"/><path class="cls-2" d="M73.4,125.73a13.07,13.07,0,0,1-5.49-1.12A6.15,6.15,0,0,1,64,120a.56.56,0,0,1,.45-.61.53.53,0,0,1,.59.47,5.12,5.12,0,0,0,3.26,3.78,13.06,13.06,0,0,0,7.15.89c5.32-.73,9.3-4,8.88-7.31a.53.53,0,0,1,.45-.61.53.53,0,0,1,.59.47c.49,3.89-3.89,7.72-9.78,8.52A15.21,15.21,0,0,1,73.4,125.73Z"/><path class="cls-2" d="M64.55,119.52A.52.52,0,0,1,64,119a.53.53,0,0,1,.49-.57l20.24-2.37a.52.52,0,0,1,.58.48.53.53,0,0,1-.46.6h0l-20.24,2.37Z"/><path class="cls-2" d="M14.14,21.28A2,2,0,0,0,14,19.14c-.07-.11-1.43-1.54-1.45-1.53,1.17-.66,2.17-1.77,1.74-3.21-.5-1.7-2.74-1.49-4.29-1.12C9.11,11.92,7.88,9.21,5.88,9.8c-1.59.47-1.64,2.62-1.51,4.09a15.59,15.59,0,0,0-2.68.37A2.21,2.21,0,0,0,0,16.06c-.11,1.27,3.49,3.36,3.77,2.64-.83,2.11-1.67,5.51,1.33,5.75a4,4,0,0,0,3.09-1.21,4.71,4.71,0,0,0,1.14-1.78c-.12.44,2,.92,2.24.94A2.76,2.76,0,0,0,14.14,21.28ZM17.28,4.39c1.42-.64,1.36-2.58,1.56-3.9A.66.66,0,0,1,20,.32c.78,1.86,2,4.39,4.47,3.83.75-.16.78.79.22,1.06a10,10,0,0,0-3.9,4c-.26.41-1,.45-1.12-.1-.35-1.61-1.25-2.55-2.09-3.84C17.13,5.33,16.73,4.64,17.28,4.39Zm.32,12.76c.72-.12,1.55-.19,2.38-.29a2.56,2.56,0,0,0,.64,1.68c.24.21.79.16.85-.21a5.08,5.08,0,0,0,0-1.69,7.07,7.07,0,0,0,2.37-.81c.5-.3.49-1-.18-1.08a7,7,0,0,0-2.53.53c-.25-.82-.57-1.61-.85-2.28-.16-.41-1-.4-.9.13.16.85.31,1.69.47,2.54-.83.23-1.67.45-2.52.63C16.63,16.44,17,17.24,17.6,17.15Zm68,105.36c0,3.69.46,8.67-2.21,11.73C82,135.87,79.57,137,77.67,138A43.69,43.69,0,0,1,71,140.49a92.64,92.64,0,0,1-31.23,3.7c-2.55-.13-5.1-.37-7.63-.7-2.15-.28-4.82-.37-6.82-1.25-3-1.32-4.53-5.4-5.56-8.24-2.4-6.64-3-13.87-3.66-20.85C15.47,106,15,98.71,14.54,91.5c-.59-10.29-.72-20.6-.65-30.91,0-4.36.06-8.74,0-13.1,0-2.11-.42-4.33.61-6.28a12.32,12.32,0,0,1,4.06-4c-.31-1.1-.63-5.67-.86-6.82a6.64,6.64,0,0,1-.36-3,6.35,6.35,0,0,1,1.6-2.68,15.13,15.13,0,0,1,5.3-3.55c4.55-1.9,9.69-2.7,14.55-3.27a127.31,127.31,0,0,1,14.34-.75c4.21,0,8.54-.14,12.69.66,3,.57,7.62,1.92,9.18,4.85a3.13,3.13,0,0,1,.4,1.78c.39,2.66.62,5.34,1,8,0,.16,3.41,2.28,4.39,4s1.12,4,1.25,6.05c.26,3.93.37,7.87.48,11.81.33,11.55,1.11,23.12,1.71,34.67.29,5.56.24,11.13.71,16.66S85.58,116.86,85.61,122.51Zm18.75,0a5.8,5.8,0,0,1-3.15,2.77c1.31,1.23,2.86,3.59,1.15,4.5s-4.49-.16-5.72-1.75c-1.15,1.66-3.32,3.54-5.16,3-2.4-.74-.34-4.22.85-5.67-.37.44-4.38-2.5-4.26-3.47.1-.79.92-1.15,1.59-1.33a13.4,13.4,0,0,1,4.23-.4,36,36,0,0,1,1.73-3.63c.5-.76,1.4-2,2.47-1.46s1.32,2,1.5,3a12.41,12.41,0,0,1,.43,2.58C101.75,120.35,105.16,120.21,104.36,122.47ZM88.58,110.26a4.83,4.83,0,0,0,1.64-4.37c-.1-.55.86-.58,1-.14.63,1.79,1.19,3.91,3.25,4.48.34.09.67.48.32.79a22.83,22.83,0,0,0-3.18,3.41c-.24.3-1.14.4-1.09-.18A3,3,0,0,0,88.61,111C88.19,110.84,88.29,110.45,88.58,110.26Zm16,2.69c-.18-.72-.92-1-1.53-1.4.41-.63.82-1.26,1.24-1.88.31-.46-.63-.89-.92-.49-.42.56-.88,1.14-1.32,1.73-.47-.3-.94-.61-1.4-.93s-1.33.19-.79.7,1,.88,1.46,1.28a9.2,9.2,0,0,0-.75,1.37c-.25.59.58.92,1,.51a7.81,7.81,0,0,0,.81-1.14,3.17,3.17,0,0,0,1.95.71A.34.34,0,0,0,104.63,113Z"/><path class="cls-12" d="M20,65.72c.37,12.55,1.4,25.11,3,37.56.63,4.86.82,9.7,1.34,14.57a25.7,25.7,0,0,0,1.5,7.42c1.27,3,4.15,4.4,7.19,4.92a57.32,57.32,0,0,0,10.15.35c3.22,0,6.44-.16,9.65-.42a87.33,87.33,0,0,0,18-3.28c3.43-1,7.54-2.71,7.78-6.86.19-3.23-.14-6.57-.22-9.8s-.15-6.36-.2-9.54c-3,.53-6,1-9.09,1.5a2,2,0,0,1,0,1.38,3.67,3.67,0,0,1-2.41,2.6,2.67,2.67,0,0,1-2.9-.74,2.72,2.72,0,0,1-.37-2.44c-3.61.46-7.23.83-10.86,1-6.5.4-16.33,1.16-18.78-6.7-.89-2.86-.85-6.15-1-9.12a38.17,38.17,0,0,1,.38-10.35,3.6,3.6,0,0,1,2.45-2.64c-.45.18-.39-1.66-.34-1.82a3.24,3.24,0,0,1,1.16-1.63,2.62,2.62,0,0,1,3.66.45,2.11,2.11,0,0,1,.12,2.19l.71-.06c4.46-.45,9-.54,13.44-.81C62.28,73,70.14,72.42,78,71.83c-.13-3.57-.24-7.14-.45-10.71-.14-2.53.46-6.64-1.29-8.7C74,49.7,69,49.54,65.86,50.24c-6.06,1.37-11.33,5.4-16.54,8.57-4.93,3-10.34,5.66-16.23,5.81-4.08.11-9.63-.62-13-3.21A19.43,19.43,0,0,0,20,65.72ZM58.48,118.8a4.69,4.69,0,0,1,2.11.81,2.36,2.36,0,0,1,1.38,2.3,3.18,3.18,0,0,1-4.08,2.19,2.94,2.94,0,0,1-1.09-4.68A2.07,2.07,0,0,1,58.48,118.8Zm-3.83-13.37A2.48,2.48,0,1,1,56,110.12C53.27,110.7,52.27,106.51,54.65,105.43ZM51,127a2.87,2.87,0,0,1-4.29-1.49,2.62,2.62,0,0,1,3.23-3.31A2.74,2.74,0,0,1,51,127Zm-3.93-15c1.09-.36,2.8.7,3.28,1.67.69,1.38-.65,2.91-1.93,3.25C45.53,117.68,44.54,112.83,47.07,112ZM59.63,57.06A2.36,2.36,0,0,1,63,59.13a3.27,3.27,0,0,1-3,3.28A2,2,0,0,1,57.89,60C57.57,59,58.78,57.41,59.63,57.06Zm-8,11.21a3.24,3.24,0,0,1,2.2-2.39,2.25,2.25,0,0,1,2.52,2.44,2.73,2.73,0,0,1-3.11,2.37A1.74,1.74,0,0,1,51.65,68.27ZM43.1,65.14a2.3,2.3,0,0,1,3.25,1,2.25,2.25,0,0,1-1.64,3A2.19,2.19,0,0,1,43.1,65.14Zm-3.92,62.45c-2.34,1.07-5.27-.4-7.11-1.86a10.49,10.49,0,0,1-3.88-6.94c-.1-.7,1.11-1,1.25-.29a9.89,9.89,0,0,0,4.91,6.59c1.54.84,3.29.88,4.85,1.58A.51.51,0,0,1,39.18,127.59Zm-3.43-22.93c1.49,1.68-.22,4.08-2.23,3.9-1.82-.17-3.25-1.88-2-3.54C32.45,103.82,34.69,103.45,35.75,104.66ZM29.11,85.38a2.3,2.3,0,0,1,2,3.24A3.25,3.25,0,0,1,26.76,90C24.65,88.76,27.2,85.27,29.11,85.38ZM39.47,62.19a48.33,48.33,0,0,0,9.77-4.91C44.18,57.74,39.07,57,34,56.8a32.89,32.89,0,0,0-8.58.54,9,9,0,0,0-4.31,2,3.47,3.47,0,0,0-.84,1.29l.06,0c2.4,1.89,5.94,2.39,8.9,2.69A24.17,24.17,0,0,0,39.47,62.19Z"/><path class="cls-13" d="M83.11,99.74c-.07,0-2.34.46-3.39.64.14,4.12,1.15,19.2,0,22.15-1.6,4-6.27,5.37-10.06,6.43A93.83,93.83,0,0,1,49,132.07c-3.44.17-6.89.19-10.33.19-3.27,0-6.69-.13-9.68-1.6-4.91-2.42-5.6-7.81-6.12-12.72-.27-2.6-1.3-14.22-1.69-17.41-.83-7-1.47-14-1.92-21.08-.23-3.49-.41-7-.53-10.5-.07-1.76-.12-3.52-.16-5.29a8.7,8.7,0,0,1,.29-3.37c1.93-5,9.42-5.08,13.81-5,6.19.15,12.48,1.51,18.66.69,1.59-1,3.18-2,4.8-3,4.5-2.63,9.55-5.15,14.91-4.48,3,.37,6.28,1.54,7.35,4.6.34,1,.49,6.21.59,7.87.21,3.56.3,7.13.42,10.69l2.66-.2c-.32-6.12-1-24.89-1.17-28.14a23.25,23.25,0,0,0-.62-5.33c-.67-2.24-2.31-3.47-4.21-4.51l-.06.11c-2.7,4-7.95,5-12.3,6.16A98.54,98.54,0,0,1,47.53,43a61.44,61.44,0,0,1-15.21-.25c-4.22-.64-10.12-1.54-13-5.08-2.24,1.67-4.19,3.55-4.24,6.56,0,2.24.14,4.49.14,6.73,0,4.63,0,9.27,0,13.91,0,10.41.25,20.83,1,31.2.51,6.61.93,13.22,1.63,19.81.64,5.94,1.29,12.13,3.45,17.75h0c5.2,1.85,10.88,2.26,16.36,2.49a95.83,95.83,0,0,0,16.42-.71,87.93,87.93,0,0,0,16.11-3.62,141.75,141.75,0,0,0,13.78-5.72c.11-5.11,0-10.24-.27-15.34C83.66,108,83.11,100.72,83.11,99.74ZM70.17,42.23c1.1-.48,2.2-.95,3.28-1.45a2.85,2.85,0,0,1,2.33-.39c2,.83,1.77,3.91,1.73,5.61a.68.68,0,0,1-1,.56c-.93-.72-.75-2-.77-3a3.64,3.64,0,0,0,0-.87L74,41.88a5.45,5.45,0,0,0-1.29.49l-2.2.87C69.76,43.54,69.47,42.54,70.17,42.23Zm-50.9,2.29a69.59,69.59,0,0,0,23,4.31c8.35.08,16.51-1.68,24.43-4.19.32-.11.63.51.31.68-7.31,3.91-15.87,5.35-24.09,5.36a57.38,57.38,0,0,1-24.29-5.12C18,45.26,18.7,44.31,19.27,44.52Z"/><path class="cls-6" d="M18.34,4.76a3.31,3.31,0,0,0,1.42-2.32,5.15,5.15,0,0,0,3,2.62,12.13,12.13,0,0,0-2.23,2.5A6.55,6.55,0,0,0,18.34,4.76ZM11.25,16.52c.58-.31,2.27-1,1.63-2s-3.37-.2-3.54-.19c-.84.06-1.7-3.07-2.69-3.55s-1.09,2.77-1.22,3.51-4,1.2-3.92,1.64c.25,1,4.05,1,3.7,2s-1.52,4.26-.08,4.69c2.15.63,2-1.95,3.46-2.53l.08,0c.94-.32,3.95,1.94,4.28.13C13.14,19.21,9.68,17.36,11.25,16.52ZM91.56,112.6a22.57,22.57,0,0,1,1.86-1.93A5.22,5.22,0,0,1,91,108.14a4.88,4.88,0,0,1-1.32,2.16A4,4,0,0,1,91.56,112.6Zm8.09,8.72a.62.62,0,0,1-.46-.26c-1.14-1.56-.39-3.77-1.67-5.26-.45.24-.66.8-.93,1.23-.61.93-1,2.73-1.79,3.45-.33.31-5.65.79-5.26,1.4.7,1.09,2.15,1.26,3.14,2,1.61,1.16-.52,3.1-.93,4.47a1.41,1.41,0,0,0-.07.64c.51,2.44,4.37-2.21,4.82-2.64.27-.25,1.69,1.56,2.1,1.82.84.53,2.12,1.06,3.09.58,1.26-.62-1.11-3.28-1.75-3.65l-.08,0c-.78-.55,2.5-2.15,2.91-2.57C103.88,121.28,100.18,121.31,99.65,121.32Z"/><path class="cls-4" d="M59.29,60.8c-.53-.58,0-2.17.68-2.48a1.17,1.17,0,0,1,1.65,1.25C61.51,60.48,60.14,61.75,59.29,60.8ZM48.23,115.71a1.14,1.14,0,0,0,.68-1.87c-1.44-1.55-2.22-.22-2.07.87C46.93,115.38,47.37,116,48.23,115.71Zm.64,7.5c-2.33.71-1.13,2.37.19,2.9.94.38,1.94.19,1.77-1.34A1.66,1.66,0,0,0,48.87,123.21ZM34.8,106.56c.35-.64.25-1.33-.95-1.35-.57,0-1.39.25-1.4.91C32.39,108.64,34.23,107.66,34.8,106.56Zm21.6.23c-1-.76-1.87,0-2.08,1a1,1,0,0,0,0,.23C54.19,110,58.53,108.47,56.4,106.79ZM53.18,69.52c1.09.65,2.4-.92,1.7-1.91a.89.89,0,0,0-1.56,0C53,68.08,52.49,69.11,53.18,69.52ZM29.92,88.23c.89-2-3.11-1.84-2.44.22C27.86,89.62,29.56,89.07,29.92,88.23Zm15-20.31a1.06,1.06,0,0,0,0-1.54,1.12,1.12,0,0,0-1.6.07,1,1,0,0,0-.13,1.29A1.16,1.16,0,0,0,44.89,67.92ZM58.5,123a1.79,1.79,0,0,0,2.18-1c.29-1-1.68-2.07-2.54-2C56.65,120.06,57.4,122.66,58.5,123ZM37.32,72.4c-.67.36-1.37,1.68-.54,2.26a.46.46,0,0,0,.14.07,6.93,6.93,0,0,0,2-.24l0,0a1.43,1.43,0,0,0,.17-1.57A1.33,1.33,0,0,0,37.32,72.4ZM67,104.72c.53-.35,1.35-1.49.84-2.09a1.68,1.68,0,0,0-.29-.25l-2.84.4a1.91,1.91,0,0,0,.29,1.9A1.7,1.7,0,0,0,67,104.72Z"/><path class="cls-14" d="M65.56,91.21c-.24-2.14-1.07-4.77-.13-6.85.23-.46,1.36-.31,1.81-.29,1.66.09,4,.54,4.39,2.51a5.13,5.13,0,0,1-1.06,3.83C70,91.12,67,94,66,93.28,65.48,92.94,65.62,91.72,65.56,91.21Zm15.8-6.06a1.18,1.18,0,0,0,.17-.7,3.83,3.83,0,0,0-.87-1.77c-3.78-5.17-2.5,3.54-2.81,3.55C78.84,86.19,80.75,86.13,81.36,85.15Zm1.41,2.43a8.81,8.81,0,0,0-4.28,1.35c-.66.49-.75,1.42-1,2.16-.13.44-1.41,2.71-2,1.81a1.51,1.51,0,0,1-.14-.37c-.34-1.46.06-3.17.13-4.66A52.31,52.31,0,0,1,76,82.56c.17-1.08.52-2.77,1.63-3.29,1.3-.62,2.68.82,3.42,1.74.35.44,1.52,1.57,1.54,2.09,0-1-.36-8.14-.49-10.67-8.88,1-17.78,1.75-26.68,2.44-4,.31-16.72,1.19-19,1.81-1.21.33-1.55.86-1.86,2.09a15.49,15.49,0,0,0-.28,2.72c-.17,2.85.27,15.47,2.59,18,2.69,2.9,6.92,3.19,10.63,3.14s7.71-.35,11.54-.75c8-.82,15.88-2.16,23.78-3.5C82.93,98.31,82.89,90.18,82.77,87.58ZM46.12,96.17a7.64,7.64,0,0,1-4,.72,5.09,5.09,0,0,1-2.38-.53,2.68,2.68,0,0,1-1.18-1.92c.06-1.3,2-.55,2.6-.3a4.34,4.34,0,0,0,3,.53c2.76-.86.71-3.43-1-4-1.2-.45-2.86-.77-3.41-2.09a2.79,2.79,0,0,1,1.12-3.14A6,6,0,0,1,46,84.16c.52.13,1.14.5,1,1s-.85.66-1.42.65a4.55,4.55,0,0,0-2.93.68c-.83.66-.45,1.3.32,1.87,1,.76,2.75,1.38,3.23,1.72a4,4,0,0,1,1.87,2.77A3.61,3.61,0,0,1,46.12,96.17Zm4.33-1.56c-1.73-3.11-1-8.54,2-10.6a4.39,4.39,0,0,1,2.33-.79c3.17-.09,6,3.53,6.11,6.64C61.12,94.08,53.1,99.39,50.45,94.61Zm23.08-5.24a8.58,8.58,0,0,1-4.16,4.46c-.92.5-4.66,2.41-5.28.77-1.27-3.37-1.34-6.9-1.37-10.47,0-1.79,2.91-1.87,4.17-2a7.65,7.65,0,0,1,5,.86C73.91,84.36,74.29,87.23,73.53,89.37Zm-20.05,4a2.54,2.54,0,0,0,3.37-.49,5.22,5.22,0,0,0,1.27-4.11c-.22-1.53-1.66-3.44-3.42-3C52.36,86.37,51.66,92,53.48,93.36Zm-10.62-68a4.23,4.23,0,0,0-1.85.91c-1.24,1.35,0,2.55,1,3.23a10.86,10.86,0,0,0,4.21,1.32,32.44,32.44,0,0,0,4.36.41c-.9-.82-1.24-2.26.12-2.91s3.71-.07,4.92.83c.6.46,1.16,2.12,1.3,2.15S60,31,60,30.64c.52-3.43-6.71-5.15-8.78-5.53A18.91,18.91,0,0,0,42.86,25.32Zm-9.89,1c-4,.84-8.4,1.67-12.15,3.37,3.23,1.74,7.25,2.3,10.74,2.69a90.41,90.41,0,0,0,13.57.33,19.69,19.69,0,0,0,2.28-.2,14.32,14.32,0,0,1-6.07-1.61c-2.25-1.38-3.07-4-1.42-5.8Q36.43,25.62,33,26.36Zm10.48,8.47a79.8,79.8,0,0,1-13.65-.56c-3.64-.52-7.9-1.37-10.77-3.85.48,2,1,6.37,1,6.44,3.37,2.68,8.58,3.53,12.73,4.12a60,60,0,0,0,15.38.09,108.62,108.62,0,0,0,14.4-2.79c4.17-1.08,9.47-1.91,12.4-5.36a53.87,53.87,0,0,1-.82-6.5,16.77,16.77,0,0,1-4.5,2.78C61.52,33.11,52.4,34.53,43.45,34.83Zm23.62-6.58a27.05,27.05,0,0,0,4.74-2.33,101.47,101.47,0,0,0-17.46-1.71c2.95.93,7.25,2.81,6.94,6.09A49.61,49.61,0,0,0,67.07,28.25ZM37.72,137.88c-5-.25-15.4-2.06-15.29-1.82.72,1.47,1.62,3.24,3,4.14,1.69,1.07,4.74,1.1,6.69,1.36a91.66,91.66,0,0,0,15.71.77c9.57-.35,20-1.82,28.72-5.94,2-.92,4.77-2.17,6-4.07A10.94,10.94,0,0,0,84,127.41c-9,5.31-19.58,8.39-29.83,9.77A89.81,89.81,0,0,1,37.72,137.88ZM51.62,30.16c.28.53,2.43.95,3.05,1a6,6,0,0,0,.73,0c.47-.93-1.77-1.7-2.37-1.8S51.09,29.11,51.62,30.16ZM32.68,24.73a100.28,100.28,0,0,1,13.8-1.94A99.19,99.19,0,0,1,73.17,24.5c.64-1.64-1.91-3.09-3.23-3.72a25.23,25.23,0,0,0-10-2,130.54,130.54,0,0,0-23.55,1,56.38,56.38,0,0,0-10.36,2.37,14.34,14.34,0,0,0-4.7,2.48c-.76.63-2.72,2.47-2.62,3.63a11.81,11.81,0,0,0,1,.74C23.62,26.72,28.26,25.67,32.68,24.73Z"/></svg>