<svg id="Layer_1" data-name="Layer 1" xmlns="http://www.w3.org/2000/svg" viewBox="0 0 230.72 218.14"><defs><style>.cls-1{fill:#ffeb3b;}.cls-2{fill:#fff59d;}.cls-3{fill:#ffc107;}.cls-4{fill:#570000;}.cls-5{fill:#ffca28;}.cls-6{fill:#263238;}.cls-7{fill:#e9a735;}.cls-8{opacity:0.3;}.cls-9{fill:#3e2723;}.cls-10{fill:#f48211;}.cls-11{fill:#d32f2f;}.cls-12{fill:#fafafa;}.cls-13{fill:#eceff1;}.cls-14{fill:#fff;}.cls-15{fill:#b0bec5;}.cls-16{fill:#f33;}.cls-17{fill:#ff9800;}.cls-18{fill:#ef1b1b;}</style></defs><path class="cls-1" d="M88.59,97.18s-9.54-34-18.38-49.85L58.3,48.67l-2.46,8.77S75,86.08,79.49,98.51Z"/><path class="cls-2" d="M81.05,95.21C76.52,82.78,57.41,54.14,57.41,54.14L59,48.6l-.66.07-2.46,8.77S75,86.08,79.49,98.51l9.1-1.33s-.3-1.08-.85-3Z"/><path class="cls-3" d="M70.21,47.33,58.3,48.67,57.66,51l1.51-.17c4.86,8.7,9.93,22.88,13.51,33.9a106.28,106.28,0,0,1,6.81,13.83l9.1-1.33S79.05,63.17,70.21,47.33Z"/><path class="cls-4" d="M79.49,99.89a1.39,1.39,0,0,1-1.3-.91C73.77,86.85,54.89,58.49,54.7,58.21a1.39,1.39,0,0,1-.18-1.14L57,48.3a1.4,1.4,0,0,1,1.17-1L70.05,46a1.4,1.4,0,0,1,1.36.7c8.82,15.8,18.11,48.75,18.51,50.15a1.39,1.39,0,0,1-.18,1.12,1.34,1.34,0,0,1-.95.61l-9.1,1.33ZM57.34,57.21c2.63,4,18.24,27.73,23,39.78l6.45-.94c-1.92-6.62-9.9-33.36-17.39-47.25L59.37,49.94Z"/><polygon class="cls-3" points="115.19 95.79 103.82 41.38 95.24 39.51 87.46 46.48 105.88 101.3 115.19 95.79"/><path class="cls-4" d="M105.88,102.68a1.36,1.36,0,0,1-.48-.09,1.38,1.38,0,0,1-.82-.85L86.16,46.92a1.38,1.38,0,0,1,.38-1.46l7.78-7a1.34,1.34,0,0,1,1.21-.32L104.11,40a1.36,1.36,0,0,1,1.06,1.06l11.37,54.42A1.39,1.39,0,0,1,115.9,97l-9.32,5.5A1.32,1.32,0,0,1,105.88,102.68ZM89.06,46.9l17.59,52.35,7-4.14-11-52.58-7-1.52Z"/><polygon class="cls-1" points="90.83 89.13 79.46 34.71 70.88 32.85 63.1 39.82 81.52 94.63 90.83 89.13"/><polygon class="cls-2" points="84.13 91.22 65.99 37.23 63.1 39.82 81.52 94.63 90.83 89.13 90.48 87.46 84.13 91.22"/><path class="cls-3" d="M90.55,87.78l-9.26-44.3H77.1A3.65,3.65,0,0,0,74.16,45l-3.51,4.87a3.93,3.93,0,0,0-.19,4.31Z"/><path class="cls-4" d="M81.52,96a1.36,1.36,0,0,1-.48-.09,1.4,1.4,0,0,1-.83-.85L61.8,40.26a1.37,1.37,0,0,1,.38-1.47l7.78-7a1.39,1.39,0,0,1,1.21-.32l8.58,1.86a1.38,1.38,0,0,1,1.06,1.07L92.18,88.84a1.38,1.38,0,0,1-.65,1.47l-9.31,5.51A1.44,1.44,0,0,1,81.52,96ZM64.7,40.24,82.28,92.58l7-4.14-11-52.58-7-1.52Z"/><path class="cls-1" d="M146.05,66.47c-.58-.47,1.46-32,1.46-32l-5.16-6.83-12,8.07L140.54,68.2Z"/><path class="cls-3" d="M146.12,59.24,143,32.32l2.19-.94-2.85-3.77-12,8.07L140.54,68.2l5.51-1.73C145.88,66.33,145.94,63.34,146.12,59.24Z"/><path class="cls-4" d="M140.54,69.57a1.37,1.37,0,0,1-.64-.15,1.39,1.39,0,0,1-.68-.81L129.06,36.09a1.39,1.39,0,0,1,.55-1.56l12-8.06a1.38,1.38,0,0,1,1.87.31l5.16,6.82a1.4,1.4,0,0,1,.28.92c-.72,11.16-1.76,29.36-1.54,31.49a1.47,1.47,0,0,1,.06.72,1.39,1.39,0,0,1-.95,1.06L141,69.51A1.51,1.51,0,0,1,140.54,69.57ZM132,36.25l9.44,30.22,3.13-1V65c0-.88,0-2.14.09-3.74.1-2.69.28-6.39.53-11,.37-6.71.79-13.46.91-15.34L142,29.48ZM147,65.42Zm0,0Zm0,0Zm0,0Zm0,0Zm0,0h0Zm0,0h0Zm0,0Zm0,0Zm0,0Zm0,0h0Zm0,0Zm0,0Z"/><path class="cls-1" d="M144.44,72.38C145,72,133.1,16,133.1,16l-8.36-6.69L115.8,16l19.76,63.27Z"/><path class="cls-3" d="M127,19.42l-8.24,6.16,16.77,53.69,8.88-6.89c.39-.28-5.86-30.32-9.24-46.43Z"/><path class="cls-2" d="M124.74,9.32l-.41.3,5.29,4.23s11.86,56,11.33,56.38l-6.61,5.13,1.22,3.91,8.88-6.89C145,72,133.1,16,133.1,16Z"/><path class="cls-4" d="M135.56,80.65a1.54,1.54,0,0,1-.42-.07,1.37,1.37,0,0,1-.9-.9L114.48,16.41A1.39,1.39,0,0,1,115,14.9l9-6.69a1.38,1.38,0,0,1,1.68,0L134,14.93a1.35,1.35,0,0,1,.49.79c0,.14,3,14.16,5.87,28.05,1.68,8.16,3,14.68,3.92,19.38.55,2.79,1,5,1.22,6.46.48,2.72.58,3.31-.19,3.87l-8.87,6.88A1.36,1.36,0,0,1,135.56,80.65ZM117.4,16.52,136.28,77,143,71.74c-.66-4.78-6.87-34.7-11.16-55l-7.15-5.71Zm26.23,54.75,0,0h0Z"/><path class="cls-5" d="M131.11,103.8c.53-.38-11.34-56.37-11.34-56.37l-8.36-6.69-8.94,6.68,19.76,63.27Z"/><path class="cls-1" d="M109.28,97.64s-9.54-34-18.38-49.85L79,49.13,76.54,57.9S95.65,86.54,100.18,99Z"/><path class="cls-3" d="M90.9,47.79,80.08,49C85.88,59.49,92,77.71,95.45,88.92a83.94,83.94,0,0,1,4.73,10l9.1-1.33S99.74,63.63,90.9,47.79Z"/><path class="cls-2" d="M90.9,47.79,80.08,49v0l7.47-.85C96.4,64,105.94,98,105.94,98l-5.79.85,0,.09,9.1-1.33S99.74,63.63,90.9,47.79Z"/><path class="cls-4" d="M100.18,100.35a1.38,1.38,0,0,1-1.29-.91C94.46,87.31,75.58,59,75.39,58.67a1.39,1.39,0,0,1-.18-1.14l2.45-8.77a1.4,1.4,0,0,1,1.18-1l11.91-1.34a1.36,1.36,0,0,1,1.35.7c8.82,15.8,18.12,48.75,18.51,50.15A1.37,1.37,0,0,1,109.48,99l-9.1,1.33ZM78,57.66c2.63,4,18.25,27.74,23,39.79l6.45-.94c-1.92-6.62-9.9-33.36-17.38-47.25L80.07,50.4Z"/><path class="cls-1" d="M134.23,70.17s-5.94-17.62,2.16-34.64l-8.81-7.42-8.06,5.34S118.06,62,130.24,80.93Z"/><path class="cls-3" d="M127.58,28.11l-.18.13a116.55,116.55,0,0,0-.84,17.51.81.81,0,0,1-1.54.4l-5.55-11.32c-.09,5.35.13,25.26,8,41.18a13.31,13.31,0,0,0,3.2,0,11.25,11.25,0,0,0,1.7-.85l1.87-5s-5.94-17.62,2.16-34.64Z"/><path class="cls-2" d="M136.39,35.53l-3-2.5c-8.07,17-2.15,34.6-2.15,34.6l-1.86,5a10.34,10.34,0,0,1-1.71.85,4.85,4.85,0,0,1-1.37.08c.36.82.74,1.63,1.13,2.43a13.31,13.31,0,0,0,3.2,0,11.25,11.25,0,0,0,1.7-.85l1.87-5S128.29,52.55,136.39,35.53Z"/><path class="cls-4" d="M130.24,82.31a1.38,1.38,0,0,1-1.16-.63c-6.43-10-9.06-22.6-10.14-31.42a106.76,106.76,0,0,1-.8-16.88,1.36,1.36,0,0,1,.62-1.08L126.82,27a1.4,1.4,0,0,1,1.65.1l8.81,7.42a1.37,1.37,0,0,1,.35,1.64c-7.75,16.29-2.15,33.43-2.1,33.61a1.35,1.35,0,0,1,0,.91l-4,10.77a1.39,1.39,0,0,1-1.14.89ZM120.87,34.2c-.11,4.23-.22,27,9.07,43.56l2.83-7.63c-.89-3-5.05-18.57,1.93-34.22l-7.22-6.08Z"/><polygon class="cls-1" points="131.06 89.11 92.76 28.82 97.17 20.09 109.27 19.34 135.7 85.28 131.06 89.11"/><polygon class="cls-2" points="133.41 85.56 95.12 25.28 97.75 20.05 97.17 20.09 92.76 28.82 131.06 89.11 135.7 85.28 135.22 84.07 133.41 85.56"/><path class="cls-4" d="M88,67.14a18.28,18.28,0,0,1,2.32,3.68,29.4,29.4,0,0,1,1.57,3.92,27.27,27.27,0,0,1,1,4.1,17.85,17.85,0,0,1,.26,4.35,18.28,18.28,0,0,1-2.32-3.68,30.08,30.08,0,0,1-1.57-3.93,28.19,28.19,0,0,1-1-4.1A17.76,17.76,0,0,1,88,67.14Z"/><polygon class="cls-3" points="109.27 19.34 97.17 20.09 96.94 20.56 98.8 20.45 118.23 68.91 131.06 89.11 135.7 85.28 109.27 19.34"/><path class="cls-4" d="M76.84,70.35a9.58,9.58,0,0,1,1.88,2.43,13.62,13.62,0,0,1,1.15,2.67c.14.45.26.92.36,1.39a12.18,12.18,0,0,1,.21,1.42c.1.94.12,1.79.29,2.89a3.51,3.51,0,0,1-1.39-.91,6.8,6.8,0,0,1-1-1.29,12.62,12.62,0,0,1-.66-1.33,13.65,13.65,0,0,1-.49-1.35,13.51,13.51,0,0,1-.58-2.84A9.29,9.29,0,0,1,76.84,70.35Z"/><path class="cls-4" d="M93.87,49.42c1.45,2.28,2.91,4.43,4.35,6.67a64.5,64.5,0,0,1,3.92,7,53.61,53.61,0,0,1,3,7.48,36,36,0,0,1,1.57,7.91v0s0,.08-.07.09l-.06,0-.34-.28.42.11-.13.11c-.62-1.2-1.18-2.4-1.76-3.59L103,71.36l-3.38-7.1c-1.12-2.37-2.24-4.74-3.32-7.16A30.48,30.48,0,0,1,93.87,49.42Z"/><path class="cls-4" d="M131.06,90.49l-.22,0a1.36,1.36,0,0,1-.94-.62L91.6,29.56a1.38,1.38,0,0,1-.07-1.36l4.41-8.73a1.39,1.39,0,0,1,1.15-.75L109.18,18a1.38,1.38,0,0,1,1.37.86L137,84.77a1.36,1.36,0,0,1-.4,1.57l-4.64,3.83A1.36,1.36,0,0,1,131.06,90.49ZM94.35,28.74l37,58.31,2.66-2.19L108.36,20.78l-10.31.64Z"/><path class="cls-4" d="M132.76,48.37a14.66,14.66,0,0,1,2.14,3.24,23,23,0,0,1,1.38,3.47,22.11,22.11,0,0,1,.83,3.64c.08.63.13,1.25.18,1.86s.09,1.21.19,1.9A4.86,4.86,0,0,1,136,61.05a12.71,12.71,0,0,1-1-1.69,22,22,0,0,1-1.39-3.47,23.15,23.15,0,0,1-.82-3.64A14.74,14.74,0,0,1,132.76,48.37Z"/><path class="cls-6" d="M117.12,77.42a9.81,9.81,0,0,1,1.95,2.5,15.23,15.23,0,0,1,1.86,5.66c.06.51.07,1,.09,1.47a4,4,0,0,0,.26,1.45,2.43,2.43,0,0,1-1.5-.9c-.19-.23-.35-.46-.5-.68s-.28-.44-.41-.67a14.51,14.51,0,0,1-1.2-2.74,14.21,14.21,0,0,1-.65-2.92A10,10,0,0,1,117.12,77.42Z"/><polygon class="cls-1" points="116.98 104.97 114.16 33.6 105.56 28.94 95.19 35.2 110.98 104.47 116.98 104.97"/><polygon class="cls-3" points="112.9 104.63 116.98 104.97 114.36 38.76 109.02 35.86 98.65 42.13 112.9 104.63"/><path class="cls-4" d="M117,106.35h-.12l-6-.5a1.37,1.37,0,0,1-1.23-1.07L93.85,35.51A1.37,1.37,0,0,1,94.48,34l10.37-6.26a1.35,1.35,0,0,1,1.37,0l8.59,4.66a1.4,1.4,0,0,1,.72,1.16l2.83,71.37a1.38,1.38,0,0,1-1.38,1.43Zm-4.88-3.17,3.44.29-2.73-69-7.21-3.92-8.85,5.35Z"/><path class="cls-1" d="M131.11,103.8c.53-.38-11.34-56.37-11.34-56.37l-8.36-6.69-8.94,6.68,19.76,63.27Z"/><path class="cls-2" d="M111.41,40.74l-.88.65,4.33,3.46s11.86,56,11.33,56.38l-5.57,4.32,1.61,5.14,8.88-6.89c.53-.38-11.34-56.37-11.34-56.37Z"/><path class="cls-7" d="M102.47,47.42l16.8,53.81,7.22-1.83c-12.6-17.48-15.08-58.66-15.08-58.66Z"/><path class="cls-4" d="M122.23,112.06a1.52,1.52,0,0,1-.42-.06,1.37,1.37,0,0,1-.9-.9L101.15,47.83a1.38,1.38,0,0,1,.49-1.51l8.94-6.69a1.4,1.4,0,0,1,1.69,0l8.36,6.69a1.41,1.41,0,0,1,.49.79c0,.14,3,14.16,5.87,28.05,1.68,8.16,3,14.68,3.92,19.38.55,2.79,1,5,1.22,6.46.47,2.72.58,3.31-.19,3.87l-8.87,6.88A1.44,1.44,0,0,1,122.23,112.06ZM104.07,47.94,123,108.38l6.74-5.22c-.66-4.79-6.87-34.7-11.16-55l-7.15-5.71Zm26.22,54.75,0,0h0Zm0,0Zm0,0Zm0,0Z"/><g class="cls-8"><path class="cls-9" d="M144.24,55.29l22,98.46a4.13,4.13,0,0,1-2.8,4.84L110.87,175a4.11,4.11,0,0,1-5.06-2.38L67.89,79.14a4.13,4.13,0,0,1,2.59-5.5l8-2.48a7.16,7.16,0,0,1,8.22,3A21.27,21.27,0,0,0,126,61.88a7.13,7.13,0,0,1,5-7.14l8-2.49A4.13,4.13,0,0,1,144.24,55.29Z"/></g><path class="cls-10" d="M148.62,64.51l22,98.46a4.14,4.14,0,0,1-2.8,4.85l-52.61,16.43a4.14,4.14,0,0,1-5.06-2.39L72.27,88.36a4.12,4.12,0,0,1,2.6-5.49l7.95-2.49a7.15,7.15,0,0,1,8.22,3A21.27,21.27,0,0,0,130.36,71.1a7.14,7.14,0,0,1,5-7.14l8-2.49A4.13,4.13,0,0,1,148.62,64.51Z"/><path class="cls-11" d="M147.16,62.18a4.13,4.13,0,0,0-3.8-.71l-7.8,2.44,21.21,94.75a4.68,4.68,0,0,1,.09.91A4.12,4.12,0,0,1,154,163.5L108.5,177.7l1.69,4.16a4.14,4.14,0,0,0,5.06,2.39l52.61-16.43a4.14,4.14,0,0,0,2.8-4.85l-22-98.46A4.08,4.08,0,0,0,147.16,62.18Z"/><path class="cls-7" d="M158.69,109.49l-6.5-29c-11.75,4.55-24.46,14.23-25,34.82-.66,27.42-14.32,39.45-26.43,43.42l2,4.9c15.36-4.67,38.2-15.31,47-38.49A51.66,51.66,0,0,1,158.69,109.49Z"/><g class="cls-8"><path class="cls-12" d="M116.69,179.83,78.77,86.33a4.14,4.14,0,0,1,2.6-5.5l-6.5,2a4.12,4.12,0,0,0-2.6,5.49l37.92,93.5a4.14,4.14,0,0,0,5.06,2.39l6.5-2A4.14,4.14,0,0,1,116.69,179.83Z"/></g><path class="cls-10" d="M158.69,109.49l-6.5-29a45,45,0,0,0-11.49,6.4L149.45,126c.11-.27.21-.55.32-.83A51.66,51.66,0,0,1,158.69,109.49Z"/><path class="cls-4" d="M114,185.81a5.56,5.56,0,0,1-5.13-3.43L71,88.88a5.53,5.53,0,0,1,3.46-7.33l8-2.48a8.51,8.51,0,0,1,9.8,3.59A19.9,19.9,0,0,0,129,71.17a8.53,8.53,0,0,1,6-8.53l8-2.48a5.51,5.51,0,0,1,7,4l22,98.46a5.54,5.54,0,0,1-3.73,6.46l-52.61,16.43A5.36,5.36,0,0,1,114,185.81ZM85,81.42a5.92,5.92,0,0,0-1.76.27l-8,2.49a2.75,2.75,0,0,0-1.73,3.66l37.92,93.5a2.75,2.75,0,0,0,3.37,1.59l52.61-16.43a2.77,2.77,0,0,0,1.86-3.23l-22-98.46h0a2.75,2.75,0,0,0-3.51-2l-8,2.48A5.77,5.77,0,0,0,131.73,71,22.64,22.64,0,0,1,89.87,84.11,5.74,5.74,0,0,0,85,81.42Z"/><path class="cls-4" d="M124.77,9.33a1,1,0,0,0,0,.5l.14.5c.09.34.15.67.24,1l.22,1,.21,1c.26,1.28.5,2.55.71,3.84s.4,2.59.51,3.93a18.78,18.78,0,0,1-.07,4.16,14.94,14.94,0,0,1-2-3.67,18.64,18.64,0,0,1-1.11-4,15.76,15.76,0,0,1-.16-4.18,9.48,9.48,0,0,1,.15-1.05,9.69,9.69,0,0,1,.23-1,9.22,9.22,0,0,1,.34-1c.07-.17.13-.33.22-.51A1,1,0,0,1,124.77,9.33Z"/><path class="cls-4" d="M127.75,49.15A23.17,23.17,0,0,1,126.14,44a37.64,37.64,0,0,1-.64-5.29,33,33,0,0,1,.16-5.34,14.75,14.75,0,0,1,1.52-5.24c.26,1.83.45,3.53.65,5.26s.35,3.46.43,5.2.09,3.48,0,5.23A35.18,35.18,0,0,1,127.75,49.15Z"/><path class="cls-4" d="M105.23,29.62a10.3,10.3,0,0,1,1.18,2.8,15.18,15.18,0,0,1,.51,2.79,15.82,15.82,0,0,1,0,2.84,10.82,10.82,0,0,1-.65,3,8.39,8.39,0,0,1-1.5-2.69,12.19,12.19,0,0,1-.54-5.79A8.24,8.24,0,0,1,105.23,29.62Z"/><path class="cls-4" d="M111.15,41.25c.72,2.35,1.21,4.7,1.68,7s.84,4.69,1.19,7,.66,4.7.9,7.08a68.44,68.44,0,0,1,.44,7.22,38,38,0,0,1-2.56-6.82,57.13,57.13,0,0,1-1.5-7.08,58.13,58.13,0,0,1-.62-7.21A38.63,38.63,0,0,1,111.15,41.25Z"/><path class="cls-4" d="M79.18,49.32c.95.79,1.75,1.46,2.54,2.25a12.47,12.47,0,0,1,2.08,2.69,13.42,13.42,0,0,1,1.34,3.12,10.89,10.89,0,0,1,.47,3.46,12.28,12.28,0,0,1-2.41-2.49,26.73,26.73,0,0,1-1.78-2.7,30.87,30.87,0,0,1-1.48-2.87,10.25,10.25,0,0,1-.59-1.64A5.55,5.55,0,0,1,79.18,49.32Z"/><path class="cls-4" d="M106.18,32.2a1.41,1.41,0,0,0-.2,1l0,1.06c0,.71,0,1.41.08,2.11.06,1.4.17,2.79.31,4.17.27,2.75.69,5.48,1.18,8.21s1.08,5.45,1.64,8.2,1.13,5.54,1.48,8.39v.06a.16.16,0,0,1-.31,0c0-.28-.1-.55-.14-.83.16.24.29.48.44.72l-.31.1A62.68,62.68,0,0,1,107,57.54a54.68,54.68,0,0,1-2.17-8.32,39.65,39.65,0,0,1-.61-8.64,29.63,29.63,0,0,1,.5-4.31c.14-.71.3-1.42.5-2.11.09-.35.21-.7.32-1a3.77,3.77,0,0,1,.21-.52A.89.89,0,0,1,106.18,32.2Z"/><path class="cls-4" d="M144,29.57a11.45,11.45,0,0,0-.07,2.4l.16,2.36c.1,1.58.17,3.14.24,4.69s.13,3.12.18,4.7.08,3.18,0,4.89a15.5,15.5,0,0,1-2.09-4.55,21.72,21.72,0,0,1-.44-9.88,16.15,16.15,0,0,1,.67-2.44A5.32,5.32,0,0,1,144,29.57Z"/><path class="cls-4" d="M97.6,20.36a3.75,3.75,0,0,1,1.85.67,4.06,4.06,0,0,1,1.17,1.24,4.11,4.11,0,0,1,.59,1.6,3.75,3.75,0,0,1-.25,2,5.31,5.31,0,0,1-1.67-.94,4.5,4.5,0,0,1-1-1.18,4.76,4.76,0,0,1-.6-1.44A5.1,5.1,0,0,1,97.6,20.36Z"/><path class="cls-4" d="M108.32,177l39-10.75-38.21,13.38a1.38,1.38,0,1,1-.91-2.6Z"/><path class="cls-4" d="M170.22,160.52l-17.94,4.16,17.12-6.79a1.38,1.38,0,1,1,1,2.56Z"/><g class="cls-8"><ellipse class="cls-9" cx="113.3" cy="202.73" rx="78.93" ry="6.47"/></g><path class="cls-13" d="M80.51,178.49l-12.83-4.38a21.54,21.54,0,0,1-13.44-27.33l3.21-9.41a5.13,5.13,0,0,1,6.51-3.2l43.89,15a5.12,5.12,0,0,1,3.2,6.5l-3.21,9.42A21.54,21.54,0,0,1,80.51,178.49Z"/><g class="cls-8"><path class="cls-14" d="M93.93,146.89l3.21-9.41a5.13,5.13,0,0,1,6.51-3.2l-4.43-1.51a5.12,5.12,0,0,0-6.5,3.2l-3.21,9.42A21.53,21.53,0,0,0,103,172.72l4.42,1.5A21.53,21.53,0,0,1,93.93,146.89Z"/></g><path class="cls-15" d="M107.85,149.13l-10.2-3.48a5.13,5.13,0,0,1,3.2,6.51l-3.21,9.41A21.52,21.52,0,0,1,70.32,175l10.19,3.48a21.54,21.54,0,0,0,27.33-13.44l3.21-9.42A5.12,5.12,0,0,0,107.85,149.13Z"/><path class="cls-4" d="M87.44,181a22.84,22.84,0,0,1-7.37-1.23l-12.84-4.37a22.91,22.91,0,0,1-14.29-29.08l3.21-9.42a6.5,6.5,0,0,1,8.25-4l43.89,14.95a6.51,6.51,0,0,1,4.06,8.26l-3.2,9.41A23,23,0,0,1,87.44,181ZM81,177.18a20.18,20.18,0,0,0,25.58-12.58l3.21-9.41a3.77,3.77,0,0,0-2.34-4.76l-43.9-15a3.77,3.77,0,0,0-4.76,2.34l-3.2,9.42a20.16,20.16,0,0,0,12.57,25.58Z"/><path class="cls-13" d="M91.44,188.05,53.18,175l.36-1a4.42,4.42,0,0,1,5.61-2.76L89,181.39A4.43,4.43,0,0,1,91.8,187Z"/><path class="cls-15" d="M89,181.39l-5.5-1.87a4.24,4.24,0,0,1-.16,1h0a1.1,1.1,0,0,1-1.35.78l-28.37-7.71-.12.33-.36,1,38.26,13,.36-1A4.43,4.43,0,0,0,89,181.39Z"/><path class="cls-4" d="M91.44,189.43a1.62,1.62,0,0,1-.44-.07l-38.26-13a1.36,1.36,0,0,1-.79-.7,1.33,1.33,0,0,1-.07-1.05l.35-1a5.83,5.83,0,0,1,7.37-3.62l29.88,10.19a5.8,5.8,0,0,1,3.62,7.36l-.35,1.05a1.39,1.39,0,0,1-.7.79A1.43,1.43,0,0,1,91.44,189.43Zm-36.5-15.27L90.57,186.3a3.05,3.05,0,0,0-2-3.61L58.71,172.51a3,3,0,0,0-3.77,1.65Z"/><path class="cls-16" d="M107.87,142.91l-2-.67a2.64,2.64,0,0,0,1.56-5l-3.87-1.32a2,2,0,0,0,2.15-1.41,1.92,1.92,0,0,0-1-2.51l-3-1c-1.45-1.21,2.16-11.95-3.59-7.45-5.15,4-12.6,1.91-14.07,1.43l-.26-.09-6.94-2.36a1.93,1.93,0,0,0-2.36,1.35,2,2,0,0,0,.85,2.43l-3.5-1.19a2.64,2.64,0,0,0-1.8,4.9l-2.34-.8a3,3,0,0,0-1.9,5.58L106,148.49a3,3,0,0,0,1.9-5.58Z"/><path class="cls-17" d="M70.48,133.28a2.78,2.78,0,0,1,3.39-2l.71.25a.41.41,0,0,0,.5-.57A2.72,2.72,0,0,1,75,129a2.46,2.46,0,0,1,3-1.73l2.51.85a.23.23,0,0,0,.28-.34,2.15,2.15,0,0,1-.14-1.75A1.93,1.93,0,0,1,83,124.63l-6.13-2.09a1.93,1.93,0,0,0-2.36,1.35,2,2,0,0,0,.85,2.43l-3.5-1.19a2.64,2.64,0,0,0-1.8,4.9l-2.34-.8a3,3,0,0,0-1.9,5.58L72,136.9A2.77,2.77,0,0,1,70.48,133.28Z"/><path class="cls-18" d="M107.87,142.91l-2-.67a2.64,2.64,0,0,0,1.56-5l-3.87-1.32a2,2,0,0,0,2.15-1.41,1.92,1.92,0,0,0-1-2.51l-3-1c-1.45-1.21,2.16-11.95-3.59-7.45a11,11,0,0,1-4.7,2.12c-.06,1.25,0,2.29.35,2.62l3,1a1.93,1.93,0,0,1,1,2.52,2.2,2.2,0,0,1-.35.66,1,1,0,0,0,.42,1.5l1.65.56a2.47,2.47,0,0,1,1.33,3.22,2.81,2.81,0,0,1-1.06,1.42.57.57,0,0,0,.13,1h0a3,3,0,0,1-1.9,5.58l7.94,2.71a3,3,0,0,0,1.9-5.58Z"/><path class="cls-4" d="M106.7,150a3.73,3.73,0,0,1-1.18-.19L65.39,136.11A4.15,4.15,0,0,1,63,130.74a4.48,4.48,0,0,1,2-2.47,3.83,3.83,0,0,1,2.29-.52,4.14,4.14,0,0,1,.23-1.33,3.84,3.84,0,0,1,4.76-2.59l.75.25a3.6,3.6,0,0,1,.15-.63,3.31,3.31,0,0,1,4.11-2.22l7.2,2.46c1.31.42,8.18,2.41,12.78-1.21,1.09-.85,2.7-1.89,4.14-1.13,1.74.91,1.57,3.43,1.39,6.09a21.41,21.41,0,0,0-.07,2.46l2.39.82a3.3,3.3,0,0,1,1.9,4.26,2.88,2.88,0,0,1-.27.59l1.13.39a3.58,3.58,0,0,1,2.12,2,4.24,4.24,0,0,1,.07,2.94,4.52,4.52,0,0,1-.7,1.28,3.8,3.8,0,0,1,1.18,1.59,4.49,4.49,0,0,1,.08,3.19A4.29,4.29,0,0,1,106.7,150ZM67,130.49a1.18,1.18,0,0,0-.58.16,1.84,1.84,0,0,0-.78,1,1.45,1.45,0,0,0,.64,1.88l40.13,13.67a1.44,1.44,0,0,0,1.65-1.09,1.79,1.79,0,0,0,0-1.25,1.13,1.13,0,0,0-.63-.63h0l-2-.67a1.38,1.38,0,0,1,.81-2.63,1.14,1.14,0,0,0,1.23-.88,1.46,1.46,0,0,0,0-1,.83.83,0,0,0-.46-.48l-3.88-1.32a1.38,1.38,0,0,1,.72-2.65c.15,0,.45-.13.58-.5s0-.7-.18-.77l-3-1a1.26,1.26,0,0,1-.44-.24c-1-.87-.93-2.53-.78-4.81a16.17,16.17,0,0,0,0-3.33,5.85,5.85,0,0,0-1.1.72c-5.7,4.48-13.79,2.16-15.35,1.65l-7.22-2.46c-.18-.06-.49.14-.61.5a.62.62,0,0,0,.16.75,1.37,1.37,0,0,1,.66,1.76,1.39,1.39,0,0,1-1.72.78l-3.5-1.2c-.47-.16-1.05.24-1.26.88a1.15,1.15,0,0,0,.43,1.45,1.37,1.37,0,0,1-1,2.57l-2.34-.79A.77.77,0,0,0,67,130.49Z"/></svg>