<?xml version="1.0" encoding="utf-8"?>
<!-- Generator: Adobe Illustrator 25.1.0, SVG Export Plug-In . SVG Version: 6.00 Build 0)  -->
<svg version="1.1" id="Layer_1" xmlns="http://www.w3.org/2000/svg" xmlns:xlink="http://www.w3.org/1999/xlink" x="0px" y="0px"
	 viewBox="0 0 19.6 22.3" style="enable-background:new 0 0 19.6 22.3;" xml:space="preserve">
<style type="text/css">
	.st0{fill:#FFCD05;stroke:#FFCD05;stroke-width:0.5;stroke-miterlimit:10;}
	.st1{fill:#FFCD05;stroke:#FFCD05;stroke-width:0.25;stroke-miterlimit:10;}
	.st2{fill:none;stroke:#FFCD05;stroke-miterlimit:10;}
</style>
<g id="Burger">
	<path class="st0" d="M4.3,8.7C4.5,7,5.7,5.5,7.3,5c0.3-0.1,0.2-0.5-0.1-0.4C5.4,5.1,4.1,6.8,3.9,8.7C3.8,8.9,4.3,8.9,4.3,8.7z"/>
	<path class="st1" d="M2,12.9c0.7-0.3,1.5-0.6,2.2-0.9H4c0.6,0.3,1.2,0.5,1.7,0.8c0.1,0,0.2,0.1,0.3,0.1s0.2-0.1,0.3-0.1
		c0.3-0.2,0.7-0.3,1-0.5c0.3-0.1,0.6-0.2,0.8-0.4H7.9c0.6,0.3,1.2,0.5,1.8,0.8c0.1,0,0.1,0.1,0.2,0.1s0.2,0,0.4-0.1s0.7-0.3,1-0.5
		s0.6-0.3,0.9-0.4H12c0.6,0.3,1.2,0.5,1.7,0.8c0.1,0,0.2,0.1,0.3,0.1s0.2-0.1,0.3-0.1c0.3-0.2,0.7-0.3,1-0.5
		c0.3-0.1,0.6-0.2,0.8-0.4h-0.2c0.7,0.3,1.4,0.6,2,0.9c0.3,0.1,0.5-0.3,0.2-0.4c-0.6-0.3-1.2-0.5-1.8-0.8c-0.1,0-0.1-0.1-0.2-0.1
		c-0.1,0-0.2,0-0.4,0.1c-0.4,0.2-0.7,0.3-1.1,0.5s-0.6,0.3-0.9,0.4h0.2c-0.6-0.3-1.2-0.5-1.7-0.8c-0.1,0-0.1,0-0.2-0.1
		c-0.1,0-0.2,0-0.3,0.1c-0.3,0.2-0.7,0.3-1,0.5c-0.3,0.1-0.6,0.2-0.8,0.4h0.2c-0.6-0.3-1.2-0.5-1.8-0.8c-0.1,0-0.1-0.1-0.2-0.1
		c-0.1,0-0.2,0-0.4,0.1c-0.4,0.2-0.7,0.3-1.1,0.5S6,12.4,5.7,12.5h0.2c-0.6-0.3-1.2-0.6-1.8-0.8c-0.1,0-0.2-0.1-0.3-0.1
		c-0.1,0-0.1,0-0.2,0.1c-0.4,0.2-0.7,0.3-1.1,0.5l-0.9,0.3c-0.1,0-0.2,0.2-0.2,0.3C1.7,12.9,1.8,13,2,12.9z"/>
	<path class="st1" d="M1.9,14.8c0.7-0.3,1.5-0.6,2.2-0.9H3.9c0.6,0.3,1.2,0.5,1.7,0.8c0.1,0,0.2,0.1,0.3,0.1s0.2-0.1,0.3-0.1
		c0.3-0.2,0.7-0.3,1-0.5C7.5,14.1,7.8,14,8,13.8H7.8c0.6,0.3,1.2,0.5,1.8,0.8c0.1,0,0.1,0.1,0.2,0.1s0.2,0,0.4-0.1s0.7-0.3,1-0.5
		s0.6-0.3,0.9-0.4h-0.2c0.6,0.3,1.2,0.5,1.7,0.8c0.1,0,0.2,0.1,0.3,0.1s0.2-0.1,0.3-0.1c0.3-0.2,0.7-0.3,1-0.5
		c0.3-0.1,0.6-0.2,0.8-0.4h-0.2c0.7,0.3,1.4,0.6,2,0.9c0.3,0.1,0.5-0.3,0.2-0.4c-0.6-0.3-1.2-0.5-1.8-0.8c-0.1,0-0.1-0.1-0.2-0.1
		c-0.1,0-0.2,0-0.4,0.1c-0.4,0.2-0.7,0.3-1.1,0.5s-0.6,0.3-0.9,0.4h0.2c-0.6-0.3-1.2-0.5-1.7-0.8c-0.1,0-0.1,0-0.2-0.1
		c-0.1,0-0.2,0-0.3,0.1c-0.3,0.2-0.7,0.3-1,0.5c-0.3,0.1-0.6,0.2-0.8,0.4H10c-0.6-0.3-1.2-0.5-1.8-0.8c-0.1,0-0.1-0.1-0.2-0.1
		c-0.1,0-0.2,0-0.4,0.1c-0.4,0.2-0.7,0.3-1.1,0.5s-0.6,0.3-0.9,0.4h0.2c-0.6-0.3-1.2-0.6-1.8-0.8c-0.1,0-0.2-0.1-0.3-0.1
		c-0.1,0-0.1,0-0.2,0.1c-0.4,0.2-0.7,0.3-1.1,0.5l-0.9,0.3c-0.1,0-0.2,0.2-0.2,0.3C1.6,14.8,1.8,14.9,1.9,14.8z"/>
	<path class="st2" d="M16.4,19.7H3c-0.4,0-0.7-0.3-0.7-0.7v-2.1c0-0.4,0.3-0.7,0.7-0.7c0,0,0,0,0,0h13.4c0.4,0,0.7,0.3,0.7,0.7
		c0,0,0,0,0,0V19C17.1,19.4,16.8,19.7,16.4,19.7z"/>
	<path class="st2" d="M17.1,10H2.3c0-4.1,3.3-7.4,7.4-7.4C13.8,2.6,17.1,5.9,17.1,10z"/>
</g>
</svg>
