<?xml version="1.0" encoding="utf-8"?>
<!-- Generator: Adobe Illustrator 25.1.0, SVG Export Plug-In . SVG Version: 6.00 Build 0)  -->
<svg version="1.1" id="Layer_1" xmlns="http://www.w3.org/2000/svg" xmlns:xlink="http://www.w3.org/1999/xlink" x="0px" y="0px"
	 viewBox="0 0 153.7 22.3" style="enable-background:new 0 0 153.7 22.3;" xml:space="preserve">
<style type="text/css">
	.st0{fill:#FFFFFF;}
	.st1{font-family:'BebasNeue-Regular';}
	.st2{font-size:24.4653px;}
	.st3{fill:#FFCD05;stroke:#FFCD05;stroke-width:0.5;stroke-miterlimit:10;}
	.st4{fill:#FFCD05;stroke:#FFCD05;stroke-width:0.25;stroke-miterlimit:10;}
	.st5{fill:none;stroke:#FFCD05;stroke-width:0.75;stroke-miterlimit:10;}
</style>
<text transform="matrix(1 0 0 1 19.6712 20.0961)" class="st0 st1 st2">COUNTRY BURGER</text>
<g id="Burger">
	<g>
		<g>
			<path class="st3" d="M4,8.7C4.2,7,5.4,5.5,7,5c0.3-0.1,0.2-0.5-0.1-0.4C5.1,5.1,3.8,6.7,3.6,8.7C3.5,8.9,4,8.9,4,8.7L4,8.7z"/>
		</g>
	</g>
	<g>
		<g>
			<path class="st4" d="M1.7,12.9c0.7-0.3,1.5-0.6,2.2-0.9c-0.1,0-0.1,0-0.2,0c0.6,0.3,1.2,0.5,1.7,0.8c0.1,0,0.2,0.1,0.3,0.1
				c0.1,0,0.2-0.1,0.3-0.1c0.3-0.2,0.7-0.3,1-0.5c0.3-0.1,0.6-0.2,0.8-0.4c-0.1,0-0.2,0-0.2,0c0.6,0.3,1.2,0.5,1.8,0.8
				c0.1,0,0.1,0.1,0.2,0.1c0.1,0.1,0.2,0,0.4-0.1c0.3-0.2,0.7-0.3,1-0.5c0.3-0.1,0.6-0.3,0.9-0.4c-0.1,0-0.2,0-0.2,0
				c0.6,0.3,1.2,0.5,1.7,0.8c0.1,0,0.2,0.1,0.3,0.1s0.2-0.1,0.3-0.1c0.3-0.2,0.7-0.3,1-0.5c0.3-0.1,0.6-0.2,0.8-0.4
				c-0.1,0-0.2,0-0.2,0c0.7,0.3,1.4,0.6,2,0.9c0.3,0.1,0.5-0.3,0.2-0.4c-0.6-0.3-1.2-0.5-1.8-0.8c-0.1,0-0.1-0.1-0.2-0.1
				c-0.1-0.1-0.2,0-0.4,0.1c-0.4,0.2-0.7,0.3-1.1,0.5c-0.3,0.1-0.6,0.3-0.9,0.4c0.1,0,0.2,0,0.2,0c-0.6-0.3-1.2-0.5-1.7-0.8
				c-0.1,0-0.2-0.1-0.2-0.1c-0.1,0-0.2,0-0.3,0.1c-0.3,0.2-0.7,0.3-1,0.5c-0.3,0.1-0.6,0.2-0.8,0.4c0.1,0,0.2,0,0.2,0
				c-0.6-0.3-1.2-0.5-1.8-0.8c-0.1,0-0.1-0.1-0.2-0.1c-0.1-0.1-0.2,0-0.4,0.1c-0.4,0.2-0.7,0.3-1.1,0.5c-0.3,0.1-0.6,0.3-0.9,0.4
				c0.1,0,0.2,0,0.2,0c-0.6-0.3-1.2-0.6-1.8-0.8c-0.1,0-0.2-0.1-0.3-0.1s-0.2,0.1-0.2,0.1c-0.4,0.2-0.7,0.3-1.1,0.5
				c-0.3,0.1-0.6,0.2-0.9,0.3c-0.1,0-0.2,0.2-0.2,0.3C1.4,12.9,1.5,13,1.7,12.9L1.7,12.9z"/>
		</g>
	</g>
	<g>
		<g>
			<path class="st4" d="M1.6,14.8c0.7-0.3,1.5-0.6,2.2-0.9c-0.1,0-0.1,0-0.2,0c0.6,0.3,1.2,0.5,1.7,0.8c0.1,0,0.2,0.1,0.3,0.1
				c0.1,0,0.2-0.1,0.3-0.1c0.3-0.2,0.7-0.3,1-0.5c0.3-0.1,0.6-0.2,0.8-0.4c-0.1,0-0.2,0-0.2,0c0.6,0.3,1.2,0.5,1.8,0.8
				c0.1,0,0.1,0.1,0.2,0.1c0.1,0.1,0.2,0,0.4-0.1c0.3-0.2,0.7-0.3,1-0.5c0.3-0.1,0.6-0.3,0.9-0.4c-0.1,0-0.2,0-0.2,0
				c0.6,0.3,1.2,0.5,1.7,0.8c0.1,0,0.2,0.1,0.3,0.1s0.2-0.1,0.3-0.1c0.3-0.2,0.7-0.3,1-0.5c0.3-0.1,0.6-0.2,0.8-0.4
				c-0.1,0-0.2,0-0.2,0c0.7,0.3,1.4,0.6,2,0.9c0.3,0.1,0.5-0.3,0.2-0.4c-0.6-0.3-1.2-0.5-1.8-0.8c-0.1,0-0.1-0.1-0.2-0.1
				c-0.1-0.1-0.2,0-0.4,0.1c-0.4,0.2-0.7,0.3-1.1,0.5c-0.3,0.1-0.6,0.3-0.9,0.4c0.1,0,0.2,0,0.2,0c-0.6-0.3-1.2-0.5-1.7-0.8
				c-0.1,0-0.2-0.1-0.2-0.1c-0.1,0-0.2,0-0.3,0.1c-0.3,0.2-0.7,0.3-1,0.5C10,14,9.7,14.1,9.5,14.3c0.1,0,0.2,0,0.2,0
				c-0.6-0.3-1.2-0.5-1.8-0.8c-0.1,0-0.1-0.1-0.2-0.1c-0.1-0.1-0.2,0-0.4,0.1c-0.4,0.2-0.7,0.3-1.1,0.5c-0.3,0.1-0.6,0.3-0.9,0.4
				c0.1,0,0.2,0,0.2,0c-0.6-0.3-1.2-0.6-1.8-0.8c-0.1,0-0.2-0.1-0.3-0.1s-0.2,0.1-0.2,0.1c-0.4,0.2-0.7,0.3-1.1,0.5
				c-0.3,0.1-0.6,0.2-0.9,0.3c-0.1,0-0.2,0.2-0.2,0.3C1.3,14.8,1.5,14.9,1.6,14.8L1.6,14.8z"/>
		</g>
	</g>
	<path class="st5" d="M16.1,19.7H2.7C2.3,19.7,2,19.3,2,19v-2.1c0-0.4,0.3-0.7,0.7-0.7h13.4c0.4,0,0.7,0.3,0.7,0.7V19
		C16.8,19.3,16.5,19.7,16.1,19.7z"/>
	<path class="st5" d="M16.8,10H2c0-4.1,3.3-7.4,7.4-7.4S16.8,5.9,16.8,10z"/>
</g>
</svg>
