<svg id="Layer_1" data-name="Layer 1" xmlns="http://www.w3.org/2000/svg" viewBox="0 0 232.44 232.44"><defs><style>.cls-1{fill:#ffcd05;}.cls-2,.cls-8{fill:#231f20;}.cls-3{fill:none;stroke:#231f20;stroke-miterlimit:10;stroke-width:3px;}.cls-4{font-size:41px;fill:#fff;font-family:BebasNeue-Regular, Bebas Neue;letter-spacing:0.02em;}.cls-5{letter-spacing:0.01em;}.cls-6{letter-spacing:0em;}.cls-7{letter-spacing:0.01em;}.cls-8{font-size:12px;font-family:BerlinSansFBDemi-Bold, Berlin Sans FB Demi;font-weight:700;letter-spacing:0.04em;}</style></defs><circle class="cls-1" cx="116.22" cy="116.22" r="116.22"/><g id="Burger"><path class="cls-2" d="M120.82,78.14l0-.28c0-.34-.06.33,0,0s.09-.58.15-.87a19.76,19.76,0,0,1,.52-2,16.16,16.16,0,0,1,2.53-4.85,15.69,15.69,0,0,1,4.18-3.78,17.08,17.08,0,0,1,2-1.09l.3-.13h0l.4-.16c.24-.1.49-.18.74-.27,2-.66,1.13-3.8-.86-3.13a19.62,19.62,0,0,0-13.23,16.57,1.63,1.63,0,0,0,1.62,1.63,1.67,1.67,0,0,0,1.63-1.63Z" transform="translate(-25.4 -24.51)"/><path class="cls-2" d="M111.18,95.25l8.44-3.44-1.25-.17,4,1.88c1.21.57,3.4,2.11,4.78,1.64,2.74-.91,5.38-2.36,8-3.52h-1.64l4.14,1.82,2.62,1.16a7.37,7.37,0,0,0,1.66.66,4,4,0,0,0,2-.61l2.58-1.16,4.17-1.87H149l4,1.88c1.21.57,3.4,2.11,4.78,1.64,2.74-.91,5.38-2.36,8-3.52h-1.64L172,95.08c1.9.84,3.55-2,1.64-2.8l-4.13-1.82-2.71-1.19a5.28,5.28,0,0,0-1.8-.65,5.07,5.07,0,0,0-1.72.61l-2.78,1.23-4.13,1.82H158l-4-1.88-2.55-1.19a3.08,3.08,0,0,0-2-.54,28.5,28.5,0,0,0-4.11,1.84l-3.94,1.77H143l-4.13-1.82-2.71-1.19a5.28,5.28,0,0,0-1.8-.65,5.07,5.07,0,0,0-1.72.61l-2.78,1.23-4.13,1.82h1.64l-4.24-2c-1.08-.5-3.12-1.93-4.38-1.61a34.93,34.93,0,0,0-4.32,1.76l-4.1,1.67a1.69,1.69,0,0,0-1.14,2,1.64,1.64,0,0,0,2,1.14Z" transform="translate(-25.4 -24.51)"/><path class="cls-2" d="M110.86,102.46,119.3,99l-1.25-.16,4,1.88c1.21.56,3.4,2.1,4.78,1.64,2.74-.92,5.38-2.36,8-3.52h-1.64l4.14,1.82,2.62,1.15a6.93,6.93,0,0,0,1.66.66,4,4,0,0,0,2-.6l2.58-1.16,4.17-1.87h-1.64l4,1.88c1.21.56,3.4,2.1,4.78,1.64,2.74-.92,5.38-2.36,8-3.52h-1.64l7.82,3.44c1.9.83,3.55-2,1.64-2.81l-4.13-1.82-2.71-1.19a5.28,5.28,0,0,0-1.8-.65,5.09,5.09,0,0,0-1.72.62l-2.78,1.22L156,99.49h1.64l-4-1.88-2.55-1.19a3.07,3.07,0,0,0-2-.53A27.39,27.39,0,0,0,145,97.72L141,99.49h1.64l-4.13-1.82-2.71-1.19a5.28,5.28,0,0,0-1.8-.65,5.09,5.09,0,0,0-1.72.62l-2.78,1.22-4.13,1.82H127l-4.24-2c-1.08-.51-3.12-1.93-4.38-1.61a36.5,36.5,0,0,0-4.32,1.75L110,99.33a1.68,1.68,0,0,0-1.14,2,1.64,1.64,0,0,0,2,1.13Z" transform="translate(-25.4 -24.51)"/><rect class="cls-3" x="86.97" y="82.24" width="56.66" height="13.51" rx="4.9"/><path class="cls-3" d="M169,83.47H112.35a28.35,28.35,0,1,1,56.69,0Z" transform="translate(-25.4 -24.51)"/></g><text class="cls-4" transform="translate(57.97 140.22)">C<tspan class="cls-5" x="16.32" y="0">OUNT</tspan><tspan class="cls-6" x="83.76" y="0">R</tspan><tspan class="cls-7" x="100.16" y="0">Y</tspan><tspan class="cls-7"><tspan x="8.32" y="37">BURGER</tspan></tspan></text><text class="cls-8" transform="translate(56.94 199.42)">DE TALLA MUNDIAL</text></svg>