<?xml version="1.0" encoding="utf-8"?>
<!-- Generator: Adobe Illustrator 25.1.0, SVG Export Plug-In . SVG Version: 6.00 Build 0)  -->
<svg version="1.1" id="Layer_1" xmlns="http://www.w3.org/2000/svg" xmlns:xlink="http://www.w3.org/1999/xlink" x="0px" y="0px"
	 viewBox="0 0 283.5 283.5" style="enable-background:new 0 0 283.5 283.5;" xml:space="preserve">
<style type="text/css">
	.st0{fill:none;stroke:#FFCD05;stroke-width:18;stroke-miterlimit:10;}
</style>
<g id="Burger">
	<g>
		<g>
			<path d="M62.8,106c0.1-0.5,0.4-2.8,0.1-0.7c0.1-0.8,0.2-1.5,0.3-2.3c0.3-1.9,0.7-3.7,1.2-5.6c0.6-2.3,1.3-4.5,2.1-6.7
				c0.2-0.5,0.4-1.1,0.6-1.6c0.1-0.2,0.5-1.4,0.1-0.1c0.1-0.3,0.2-0.6,0.4-0.8c0.6-1.3,1.2-2.7,1.9-4c1.4-2.7,3-5.3,4.8-7.8
				c0.2-0.3,0.4-0.6,0.7-0.9c0.1-0.2,0.7-1,0.2-0.2c0.5-0.6,1-1.2,1.4-1.8c1.2-1.4,2.4-2.8,3.7-4c1-1,2.1-2,3.2-3
				c0.6-0.5,1.2-1,1.7-1.5c0.3-0.2,0.5-0.4,0.8-0.6c0.4-0.3,0.4-0.3-0.1,0c0.2-0.2,0.4-0.3,0.6-0.5c2.1-1.6,4.3-3,6.6-4.3
				c2.2-1.2,4.4-2.4,6.7-3.4c0.3-0.1,1.3-0.5-0.2,0.1c0.2-0.1,0.5-0.2,0.7-0.3c0.4-0.2,0.9-0.3,1.3-0.5c0.8-0.3,1.7-0.6,2.5-0.9
				c2.5-0.8,4.4-3.5,3.5-6.2c-0.8-2.5-3.5-4.4-6.2-3.5c-9.9,3.3-19.1,8.7-26.7,15.8c-9.3,8.7-16.1,20-19.6,32.3
				c-1.2,4.2-2,8.5-2.4,12.9c-0.3,2.6,2.5,5.1,5,5C60.7,110.9,62.5,108.8,62.8,106L62.8,106z"/>
		</g>
	</g>
	<g>
		<g>
			<path d="M28.2,171.4c9.2-3.8,18.5-7.5,27.7-11.3c1.3-0.5,2.6-1.1,3.9-1.6c-1.9-0.3-3.9-0.5-5.8-0.8c8.3,3.9,16.6,7.8,24.9,11.6
				c2,0.9,4.3,2.3,6.4,2.3c2.1,0,4.4-1.3,6.3-2.2c5-2.2,10-4.4,15-6.6c3.9-1.7,7.8-3.4,11.7-5.1c-2.5,0-5,0-7.6,0
				c8.6,3.8,17.1,7.5,25.7,11.3c1.2,0.5,2.4,1,3.5,1.6c0.3,0.1,0.6,0.3,0.9,0.4c2.4,1,4.4,0.6,6.7-0.4c0.1,0,0.2-0.1,0.3-0.1
				c0.5-0.2,1.1-0.5,1.6-0.7c4.9-2.2,9.8-4.4,14.7-6.6c4-1.8,8.1-3.6,12.1-5.4c-2.5,0-5,0-7.6,0c8.3,3.9,16.6,7.8,24.9,11.6
				c2,0.9,4.3,2.3,6.4,2.3c2.1,0,4.4-1.3,6.3-2.2c5-2.2,10-4.4,15-6.6c3.9-1.7,7.8-3.4,11.7-5.1c-2.5,0-5,0-7.6,0
				c8.6,3.8,17.1,7.5,25.7,11.3c1.2,0.5,2.4,1.1,3.6,1.6c1.9,0.8,3.7,1.3,5.8,0.8c1.7-0.5,3.6-1.8,4.5-3.4c0.9-1.7,1.4-3.8,0.8-5.8
				c-0.6-1.7-1.7-3.7-3.4-4.5c-8.6-3.8-17.3-7.6-25.9-11.4c-1.1-0.5-2.2-1-3.3-1.5c-1.5-0.7-2.1-1-3.8-1c-1.5,0-2.5,0.5-3.8,1
				c-0.1,0-0.2,0.1-0.3,0.1c-0.6,0.3-1.1,0.5-1.7,0.8c-5,2.2-10.1,4.4-15.1,6.6c-4,1.8-8.1,3.6-12.1,5.3c2.5,0,5,0,7.6,0
				c-8.2-3.9-16.5-7.7-24.7-11.6c-1.2-0.6-2.4-1.2-3.7-1.7c-2.4-1-4.5-0.6-6.7,0.4c-0.2,0.1-0.3,0.1-0.5,0.2
				c-0.6,0.3-1.2,0.5-1.8,0.8c-4.9,2.2-9.8,4.4-14.7,6.6c-3.9,1.7-7.8,3.5-11.6,5.2c2.5,0,5,0,7.6,0c-8.6-3.8-17.3-7.6-25.9-11.4
				c-1.1-0.5-2.2-1-3.3-1.5c-1.5-0.7-2.1-1-3.8-1c-1.5,0-2.5,0.5-3.8,1c-0.1,0-0.2,0.1-0.3,0.1c-0.6,0.3-1.1,0.5-1.7,0.8
				c-5,2.2-10.1,4.4-15.1,6.6c-4,1.8-8.1,3.6-12.1,5.3c2.5,0,5,0,7.6,0c-8.5-4-17-8-25.5-11.9c-2.5-1.1-5-2.5-7.8-1.7
				c-1.2,0.4-2.4,1-3.5,1.4c-5.3,2.2-10.7,4.3-16,6.5c-4,1.6-8,3.3-12,4.9c-1.9,0.8-3.4,1.6-4.5,3.4c-0.9,1.6-1.3,4-0.8,5.8
				c0.6,1.8,1.7,3.6,3.4,4.5C24,171.5,26.3,172.1,28.2,171.4L28.2,171.4z"/>
		</g>
	</g>
	<g>
		<g>
			<path d="M27,198.4c9.2-3.8,18.5-7.5,27.7-11.3c1.3-0.5,2.6-1.1,3.9-1.6c-1.9-0.3-3.9-0.5-5.8-0.8c8.3,3.9,16.6,7.8,24.9,11.6
				c2,0.9,4.3,2.3,6.4,2.3c2.1,0,4.4-1.3,6.3-2.2c5-2.2,10-4.4,15-6.6c3.9-1.7,7.8-3.4,11.7-5.1c-2.5,0-5,0-7.6,0
				c8.6,3.8,17.1,7.5,25.7,11.3c1.2,0.5,2.4,1,3.5,1.6c0.3,0.1,0.6,0.3,0.9,0.4c2.4,1,4.4,0.6,6.7-0.4c0.1,0,0.2-0.1,0.3-0.1
				c0.5-0.2,1.1-0.5,1.6-0.7c4.9-2.2,9.8-4.4,14.7-6.6c4-1.8,8.1-3.6,12.1-5.4c-2.5,0-5,0-7.6,0c8.3,3.9,16.6,7.8,24.9,11.6
				c2,0.9,4.3,2.3,6.4,2.3c2.1,0,4.4-1.3,6.3-2.2c5-2.2,10-4.4,15-6.6c3.9-1.7,7.8-3.4,11.7-5.1c-2.5,0-5,0-7.6,0
				c8.6,3.8,17.1,7.5,25.7,11.3c1.2,0.5,2.4,1.1,3.6,1.6c1.9,0.8,3.7,1.3,5.8,0.8c1.7-0.5,3.6-1.8,4.5-3.4c0.9-1.7,1.4-3.8,0.8-5.8
				c-0.6-1.7-1.7-3.7-3.4-4.5c-8.6-3.8-17.3-7.6-25.9-11.4c-1.1-0.5-2.2-1-3.3-1.5c-1.5-0.7-2.1-1-3.8-1c-1.5,0-2.5,0.5-3.8,1
				c-0.1,0-0.2,0.1-0.3,0.1c-0.6,0.3-1.1,0.5-1.7,0.8c-5,2.2-10.1,4.4-15.1,6.6c-4,1.8-8.1,3.6-12.1,5.3c2.5,0,5,0,7.6,0
				c-8.2-3.9-16.5-7.7-24.7-11.6c-1.2-0.6-2.4-1.2-3.7-1.7c-2.4-1-4.5-0.6-6.7,0.4c-0.2,0.1-0.3,0.1-0.5,0.2
				c-0.6,0.3-1.2,0.5-1.8,0.8c-4.9,2.2-9.8,4.4-14.7,6.6c-3.9,1.7-7.8,3.5-11.6,5.2c2.5,0,5,0,7.6,0c-8.6-3.8-17.3-7.6-25.9-11.4
				c-1.1-0.5-2.2-1-3.3-1.5c-1.5-0.7-2.1-1-3.8-1c-1.5,0-2.5,0.5-3.8,1c-0.1,0-0.2,0.1-0.3,0.1c-0.6,0.3-1.1,0.5-1.7,0.8
				c-5,2.2-10.1,4.4-15.1,6.6c-4,1.8-8.1,3.6-12.1,5.3c2.5,0,5,0,7.6,0c-8.5-4-17-8-25.5-11.9c-2.5-1.1-5-2.5-7.8-1.7
				c-1.2,0.4-2.4,1-3.5,1.4c-5.3,2.2-10.7,4.3-16,6.5c-4,1.6-8,3.3-12,4.9c-1.9,0.8-3.4,1.6-4.5,3.4c-0.9,1.6-1.3,4-0.8,5.8
				c0.6,1.8,1.7,3.6,3.4,4.5C22.8,198.5,25.1,199.2,27,198.4L27,198.4z"/>
		</g>
	</g>
	<path class="st0" d="M229.9,263.7H46.7c-8,0-14.5-6.5-14.5-14.5v-21.6c0-8,6.5-14.5,14.5-14.5h183.2c8,0,14.5,6.5,14.5,14.5v21.6
		C244.3,257.2,237.8,263.7,229.9,263.7z"/>
	<path class="st0" d="M244.4,125.9H32.2c0-58.6,47.5-106.1,106.1-106.1C196.9,19.8,244.4,67.3,244.4,125.9z"/>
</g>
</svg>
